<svg id="Calque_1" xmlns="http://www.w3.org/2000/svg" width="214.579" height="267.073" viewBox="0 0 214.579 267.073"><circle stroke="#FFF" stroke-miterlimit="10" cx="92.382" cy="224.739" r="7.5"/><circle stroke="#FFF" stroke-miterlimit="10" cx="92.382" cy="91.511" r="7.5"/><path fill="none" stroke="#000" stroke-width="2" stroke-miterlimit="10" d="M92.382 224.739V91.405"/><path fill="none" stroke="#000" stroke-linecap="round" stroke-linejoin="round" stroke-miterlimit="10" d="M50.716 224.687V91.458M50.716 91.458h17.5M50.716 224.687h17.5"/><path d="M24.517 204.805c-.082 0-.16-.016-.234-.047s-.14-.075-.196-.132-.101-.121-.132-.193-.047-.151-.047-.237c0-.082.016-.159.047-.231s.075-.137.132-.193.121-.102.193-.135.151-.05.237-.05h6.686c.008-.066.028-.134.062-.202s.077-.127.132-.176.116-.089.185-.12.144-.047.226-.047.16.017.234.05.139.076.193.129.099.116.132.19.05.152.05.234c0 .18-.035.344-.105.492s-.188.293-.352.434c.145.191.257.409.337.653s.12.509.12.794c0 .375-.065.713-.196 1.014s-.324.556-.58.765-.573.37-.952.483-.816.17-1.312.17c-.527 0-.981-.062-1.362-.185s-.696-.292-.946-.507-.435-.472-.554-.771-.179-.622-.179-.97c0-.23.025-.443.076-.639s.125-.387.223-.574h-2.118zm3.41.34c-.125.098-.219.221-.281.369s-.094.316-.094.504c0 .242.045.441.135.598s.215.28.375.372.352.155.574.19.469.053.738.053c.359 0 .656-.028.891-.085s.421-.139.56-.246.236-.236.293-.387.085-.315.085-.495c0-.176-.029-.339-.088-.489s-.159-.279-.302-.387-.329-.19-.56-.249-.523-.088-.879-.088c-.316 0-.598.027-.844.082s-.447.14-.603.258zM24.517 200.993c-.082 0-.159-.016-.231-.047s-.137-.074-.193-.129-.101-.119-.132-.191-.047-.15-.047-.236c0-.176.057-.322.17-.438s.258-.172.434-.172h.012c.18 0 .325.059.437.178s.167.264.167.432c0 .172-.058.314-.173.43s-.259.174-.431.174H24.517zm2.426 0c-.078 0-.154-.016-.229-.047s-.139-.074-.193-.129-.1-.119-.135-.193-.053-.152-.053-.234c0-.086.017-.166.05-.24s.078-.139.135-.193.122-.1.196-.133.15-.049.229-.049h4.863c.082 0 .16.016.234.049s.139.078.193.135.099.121.132.193.05.152.05.238c0 .082-.017.16-.05.234s-.077.139-.132.193-.119.098-.193.129-.152.047-.234.047h-4.863zM27.095 193.513c.117-.086.238-.129.363-.129.086 0 .167.015.243.044s.143.072.199.129.102.121.135.193.05.149.05.231c0 .195-.076.355-.229.48-.055.043-.103.106-.144.19s-.073.176-.097.275-.04.2-.05.302-.015.193-.015.275c.004.164.023.308.059.431s.082.226.141.308.124.143.196.182.146.059.22.059c.078 0 .154-.024.229-.073s.138-.118.19-.208.096-.195.129-.316.052-.256.056-.404c.02-.281.071-.549.155-.803s.199-.476.346-.665.322-.34.527-.451.437-.167.694-.167c.281 0 .54.059.776.176s.439.276.609.478.302.434.396.697.141.542.141.835c0 .262-.037.52-.111.773s-.173.479-.296.677-.263.357-.419.48-.312.185-.469.185c-.078 0-.153-.016-.226-.047s-.137-.072-.193-.123-.102-.113-.135-.188-.05-.154-.05-.24c0-.102.021-.198.064-.29s.109-.167.199-.226c.023-.012.058-.04.103-.085s.093-.108.144-.19.095-.181.132-.296.056-.249.056-.401c0-.145-.02-.278-.059-.401s-.09-.229-.152-.319-.136-.16-.22-.211-.171-.076-.261-.076c-.141 0-.262.083-.363.249s-.162.401-.182.706c-.02.316-.077.605-.173.867s-.221.487-.375.677-.336.336-.545.439-.44.155-.694.155c-.238 0-.469-.051-.691-.152s-.42-.25-.592-.445-.31-.433-.413-.712-.155-.597-.155-.952c0-.129.01-.276.029-.442s.057-.337.111-.513.131-.348.229-.516.228-.319.388-.452zM24.511 190.702c-.086 0-.165-.017-.237-.05s-.136-.077-.19-.132-.098-.119-.129-.193-.047-.154-.047-.24.016-.166.047-.242.075-.141.132-.193.121-.096.193-.127.149-.047.231-.047h1.822v-.604c0-.086.017-.166.05-.24s.078-.137.135-.189.122-.096.196-.129.15-.051.229-.051c.09 0 .171.018.243.051s.136.076.19.131.098.119.129.191.047.15.047.236v.604h3.035c.074 0 .13-.002.167-.006s.064-.01.082-.02.032-.021.044-.033.027-.025.047-.041c.051-.035.088-.061.111-.076s.043-.033.059-.055.029-.051.041-.086.031-.092.059-.17c.004-.016.006-.057.006-.123 0-.078.015-.152.044-.225s.071-.137.126-.193.119-.104.193-.139.154-.053.24-.053.166.018.24.051.138.076.19.131.095.119.126.191.047.148.047.23c0 .438-.118.814-.354 1.131s-.604.541-1.104.674c-.117.023-.238.035-.363.035h-3.035c0 .172-.058.315-.173.431s-.261.173-.437.173c-.078 0-.154-.016-.229-.047s-.139-.074-.193-.129-.1-.119-.135-.193-.053-.152-.053-.234h-1.822zM26.333 183.779c0-.254.031-.485.094-.694s.152-.417.27-.624c-.109-.055-.196-.132-.261-.231s-.097-.208-.097-.325c0-.082.017-.159.05-.231s.077-.137.132-.193.119-.101.193-.132.152-.047.234-.047l4.172.047c.039 0 .062-.012.07-.035s.012-.039.012-.047v-.006c0-.086.017-.165.05-.237s.078-.137.135-.193.121-.101.193-.132.149-.047.231-.047c.086 0 .166.017.24.05s.138.078.19.135.094.122.123.196.044.152.044.234v.012c0 .215-.045.403-.135.565s-.209.31-.357.442c.168.195.293.42.375.674s.123.527.123.82c0 .375-.065.713-.196 1.014s-.324.556-.58.765-.573.37-.952.483-.816.17-1.312.17c-.527 0-.981-.062-1.362-.185s-.696-.292-.946-.507-.435-.472-.554-.771-.179-.622-.179-.97zm1.594-.879c-.121.098-.214.22-.278.366s-.097.317-.097.513c0 .422.147.729.442.923s.755.29 1.38.29c.359 0 .656-.029.891-.088s.421-.141.56-.246.236-.233.293-.384.085-.315.085-.495-.028-.345-.085-.495-.155-.278-.296-.384-.327-.188-.56-.246-.528-.088-.888-.088c-.363 0-.66.03-.891.091s-.415.142-.556.243zM26.691 177.437c-.066-.117-.121-.229-.164-.332s-.079-.205-.108-.307-.051-.203-.064-.305-.021-.209-.021-.322c0-.289.056-.578.167-.867s.272-.551.483-.783.467-.42.768-.564.641-.217 1.02-.217h3.035c.09 0 .173.018.249.053s.141.08.193.135.094.119.123.193.044.148.044.223c0 .086-.017.164-.05.236s-.077.137-.132.193-.119.102-.193.135-.152.051-.234.051h-3.035c-.156 0-.309.029-.457.09s-.279.145-.393.252-.203.236-.27.385-.1.311-.1.486c0 .195.037.367.111.518s.171.277.29.381.251.182.396.234.285.08.422.08h3.035c.082 0 .16.016.234.049s.139.078.193.135.099.121.132.193.05.152.05.238c0 .082-.017.16-.05.234s-.077.139-.132.193-.119.098-.193.129-.152.047-.234.047h-4.863c-.078 0-.154-.016-.229-.047s-.139-.074-.193-.129-.1-.119-.135-.193-.053-.152-.053-.234c0-.117.032-.227.097-.328s.152-.181.261-.235zM30.798 168.362c-.086-.055-.15-.126-.193-.214s-.064-.188-.064-.302c0-.07.015-.142.044-.214s.072-.136.129-.19.121-.099.193-.132.151-.05.237-.05c.125 0 .242.033.352.1s.209.149.299.249.168.202.234.308.119.195.158.27c.152.312.229.67.229 1.072 0 .375-.065.713-.196 1.014s-.324.556-.58.765-.573.37-.952.483-.816.17-1.312.17c-.527 0-.981-.062-1.362-.185s-.696-.292-.946-.507-.435-.472-.554-.771-.179-.622-.179-.97c0-.418.085-.789.255-1.113s.403-.59.7-.797c.105-.07.219-.105.34-.105.09 0 .172.018.246.053s.139.08.193.135.098.118.129.19.047.144.047.214c0 .223-.092.396-.275.521-.121.082-.221.197-.299.346s-.117.334-.117.557c0 .422.147.729.442.923s.755.29 1.38.29c.359 0 .656-.029.891-.088s.421-.141.56-.246.236-.233.293-.384.085-.315.085-.495c0-.188-.026-.354-.079-.498s-.164-.278-.328-.399zM30.839 161.907c-.078-.055-.139-.123-.182-.207s-.064-.18-.064-.285c0-.074.016-.146.047-.219s.074-.137.129-.193.118-.102.19-.135.151-.051.237-.051c.082 0 .161.016.237.047s.146.072.208.123.119.105.17.164.094.109.129.152c.113.141.2.277.261.408s.107.256.141.377.054.238.062.35.012.215.012.312c0 .379-.067.719-.202 1.02s-.331.555-.589.76-.575.361-.952.471-.81.164-1.298.164c-.504 0-.945-.057-1.324-.17s-.695-.275-.949-.486-.445-.465-.574-.762-.193-.629-.193-.996c0-.336.059-.65.176-.943s.3-.547.548-.764.564-.389.949-.514.841-.188 1.368-.188c.086 0 .165.018.237.051s.137.076.193.131.101.119.132.193.047.152.047.234v2.959c.191-.023.363-.062.516-.119s.28-.131.384-.223.183-.205.237-.34.082-.295.082-.479c0-.129-.012-.24-.035-.334s-.053-.172-.088-.236-.073-.119-.114-.164-.085-.08-.128-.108zm-2.918 1.705c.125.09.258.156.398.199s.291.076.451.1v-2.314c-.172.027-.333.066-.483.115s-.28.117-.39.205-.194.199-.255.336-.091.303-.091.498.032.365.097.508.156.26.273.353zM29.38 153.041c0 .082-.017.16-.05.234s-.077.139-.132.193-.118.098-.19.129-.151.047-.237.047c-.082 0-.159-.016-.231-.047s-.137-.074-.193-.129-.101-.118-.132-.19-.047-.151-.047-.237v-4.072c0-.082.016-.16.047-.234s.074-.139.129-.193.119-.098.193-.129.152-.047.234-.047c.086 0 .165.016.237.047s.136.074.19.129.099.119.132.193.05.152.05.234v4.072zm2.426 0c0 .086-.017.165-.05.237s-.077.136-.132.19-.119.098-.193.129-.15.047-.229.047c-.082 0-.16-.016-.234-.047s-.14-.074-.196-.129-.102-.119-.135-.193-.05-.152-.05-.234v-4.072c0-.082.017-.16.05-.234s.078-.139.135-.193.122-.098.196-.129.152-.047.234-.047c.078 0 .154.016.229.047s.139.074.193.129.099.118.132.19.05.151.05.237v4.072zM31.806 139.229c.082 0 .16.018.234.051s.139.076.193.129.099.117.132.193.05.152.05.23c0 .086-.017.166-.05.238s-.077.137-.132.193-.119.1-.193.131-.152.047-.234.047h-5.83l.188.182c.113.113.17.258.17.434 0 .086-.016.166-.047.238-.031.071-.075.135-.132.189s-.121.098-.193.129-.149.047-.231.047c-.168 0-.312-.061-.434-.182l-1.207-1.213c-.121-.113-.182-.258-.182-.434 0-.078.016-.154.047-.23s.075-.141.132-.193.122-.096.196-.129.152-.051.234-.051h7.289zM30.798 129.203c-.086-.055-.15-.126-.193-.214s-.064-.188-.064-.302c0-.07.015-.142.044-.214s.072-.136.129-.19.121-.099.193-.132.151-.05.237-.05c.125 0 .242.033.352.1s.209.149.299.249.168.202.234.308.119.195.158.27c.152.312.229.67.229 1.072 0 .375-.065.713-.196 1.014s-.324.556-.58.765-.573.37-.952.483-.816.17-1.312.17c-.527 0-.981-.062-1.362-.185s-.696-.292-.946-.507-.435-.472-.554-.771-.179-.622-.179-.97c0-.418.085-.789.255-1.113s.403-.59.7-.797c.105-.07.219-.105.34-.105.09 0 .172.018.246.053s.139.08.193.135.098.118.129.19.047.144.047.214c0 .223-.092.396-.275.521-.121.082-.221.197-.299.346s-.117.334-.117.557c0 .422.147.729.442.923s.755.29 1.38.29c.359 0 .656-.029.891-.088s.421-.141.56-.246.236-.233.293-.384.085-.315.085-.495c0-.188-.026-.354-.079-.498s-.164-.278-.328-.399zM24.517 126.007c-.082 0-.16-.016-.234-.047s-.14-.074-.196-.129-.101-.119-.132-.193-.047-.152-.047-.234c0-.086.016-.166.047-.238s.075-.137.132-.193.121-.102.193-.135.151-.049.237-.049h6.686c.008-.066.027-.133.059-.199s.074-.125.129-.176.116-.092.185-.123.146-.047.231-.047c.082 0 .16.016.234.049s.139.078.193.133.099.119.132.193.05.152.05.234c0 .125-.024.254-.073.389s-.121.26-.217.373-.216.207-.36.281-.314.111-.51.111h-6.739zM24.517 122.194c-.082 0-.159-.016-.231-.047s-.137-.074-.193-.129-.101-.118-.132-.19-.047-.151-.047-.237c0-.176.057-.321.17-.437s.258-.173.434-.173h.012c.18 0 .325.06.437.179s.167.263.167.431c0 .172-.058.315-.173.431s-.259.173-.431.173H24.517zm2.426 0c-.078 0-.154-.016-.229-.047s-.139-.074-.193-.129-.1-.119-.135-.193-.053-.152-.053-.234c0-.086.017-.166.05-.24s.078-.139.135-.193.122-.099.196-.132.15-.05.229-.05h4.863c.082 0 .16.017.234.05s.139.078.193.135.099.121.132.193.05.151.05.237c0 .082-.017.16-.05.234s-.077.139-.132.193-.119.098-.193.129-.152.047-.234.047h-4.863zM30.798 115.599c-.086-.055-.15-.125-.193-.213s-.064-.189-.064-.303c0-.07.015-.141.044-.213s.072-.137.129-.191.121-.098.193-.131.151-.051.237-.051c.125 0 .242.033.352.1s.209.15.299.25.168.201.234.307.119.195.158.27c.152.312.229.67.229 1.072 0 .375-.065.713-.196 1.014s-.324.557-.58.766-.573.369-.952.482-.816.17-1.312.17c-.527 0-.981-.061-1.362-.184s-.696-.293-.946-.508-.435-.471-.554-.77-.179-.623-.179-.971c0-.418.085-.789.255-1.113s.403-.59.7-.797c.105-.07.219-.105.34-.105.09 0 .172.018.246.053s.139.08.193.135.098.119.129.191.047.143.047.213c0 .223-.092.396-.275.521-.121.082-.221.197-.299.346s-.117.334-.117.557c0 .422.147.73.442.924s.755.289 1.38.289c.359 0 .656-.029.891-.088s.421-.141.56-.246.236-.232.293-.383.085-.316.085-.496c0-.188-.026-.354-.079-.498s-.164-.278-.328-.399zM24.517 112.402c-.082 0-.159-.016-.231-.047s-.137-.074-.193-.129-.101-.118-.132-.19-.047-.151-.047-.237c0-.09.016-.171.047-.243s.074-.136.129-.19.119-.098.193-.129.152-.047.234-.047h4.605l-.943-.938c-.031-.031-.051-.053-.059-.064l-1.6-1.594c-.121-.105-.182-.248-.182-.428 0-.082.017-.161.05-.237s.077-.141.132-.193.119-.096.193-.129.15-.05.229-.05c.168 0 .311.061.428.182l1.318 1.312 2.848-1.447c.09-.043.178-.064.264-.064s.167.017.243.05.141.078.193.135.095.122.126.196.047.15.047.229c0 .125-.026.233-.079.325s-.136.165-.249.22l-2.484 1.254 1.248 1.242h.961c.086 0 .166.016.24.047s.138.075.19.132.095.121.126.193.047.151.047.237-.017.165-.05.237-.077.136-.132.19-.119.098-.193.129-.15.047-.229.047h-7.288z"/><g><path d="M93.962 29.019c-.043.125-.116.225-.22.299s-.224.111-.36.111c-.086 0-.167-.017-.243-.05s-.141-.077-.193-.132-.095-.119-.126-.193-.047-.148-.047-.223c0-.062.012-.127.035-.193l2.438-7.301c.043-.117.115-.214.217-.29s.219-.114.352-.114c.121 0 .237.037.349.111s.187.174.226.299l2.432 7.295c.012.035.02.069.023.103s.006.065.006.097c0 .082-.017.16-.05.234s-.077.137-.132.188-.119.092-.193.123-.15.047-.229.047c-.141 0-.262-.038-.363-.114s-.172-.175-.211-.296l-.469-1.412h-2.771l-.471 1.411zm2.836-2.625l-.984-2.947-.984 2.947h1.968zM100.944 21.536c0-.082.016-.16.047-.234s.074-.14.129-.196.119-.101.193-.132.152-.047.234-.047c.086 0 .165.016.237.047s.137.075.193.132.102.121.135.193.05.151.05.237v6.686c.066.008.133.027.199.059s.125.074.176.129.092.116.123.185.047.146.047.231c0 .082-.017.16-.05.234s-.077.139-.132.193-.119.099-.193.132-.152.05-.234.05c-.125 0-.255-.024-.39-.073s-.259-.121-.372-.217-.207-.216-.281-.36-.111-.314-.111-.51v-6.739zM104.756 21.536c0-.082.016-.16.047-.234s.074-.14.129-.196.119-.101.193-.132.152-.047.234-.047c.086 0 .165.016.237.047s.137.075.193.132.102.121.135.193.05.151.05.237v6.686c.066.008.133.027.199.059s.125.074.176.129.092.116.123.185.047.146.047.231c0 .082-.017.16-.05.234s-.077.139-.132.193-.119.099-.193.132-.152.05-.234.05c-.125 0-.255-.024-.39-.073s-.259-.121-.372-.217-.207-.216-.281-.36-.111-.314-.111-.51v-6.739zM113.822 21.53c0-.086.018-.165.051-.237s.076-.136.131-.19.119-.098.193-.129.154-.047.24-.047.168.016.244.047.141.075.193.132.094.121.125.193.047.149.047.231v1.822h.604c.086 0 .166.017.24.05s.139.078.191.135.096.122.129.196.049.15.049.229c0 .09-.016.171-.049.243s-.078.136-.133.19-.117.098-.189.129-.152.047-.238.047h-.604v3.035c0 .074.002.13.006.167s.012.064.021.082.02.032.031.044.025.027.041.047c.035.051.061.088.076.111s.035.043.057.059.049.029.084.041.092.031.17.059c.016.004.057.006.123.006.078 0 .154.015.227.044s.137.071.193.126.102.119.137.193.053.154.053.24-.016.166-.049.24-.078.138-.133.19-.117.095-.189.126-.15.047-.232.047c-.438 0-.814-.118-1.131-.354s-.541-.604-.674-1.104c-.023-.117-.035-.238-.035-.363v-3.035c-.172 0-.314-.058-.43-.173s-.174-.261-.174-.437c0-.078.016-.154.047-.229s.074-.139.129-.193.119-.1.193-.135.152-.053.234-.053V21.53zM119.533 23.681c.379-.219.783-.328 1.213-.328.289 0 .578.056.867.167s.55.272.782.483.421.467.565.768.217.641.217 1.02v3.035c0 .09-.018.173-.053.249s-.08.141-.135.193-.119.094-.193.123-.148.044-.223.044c-.086 0-.165-.017-.237-.05s-.137-.077-.193-.132-.102-.119-.135-.193-.05-.152-.05-.234V25.79c0-.156-.03-.309-.091-.457s-.145-.279-.252-.393-.235-.203-.384-.27-.311-.1-.486-.1c-.195 0-.368.037-.519.111s-.277.171-.381.29-.182.251-.234.396-.079.285-.079.422v3.035c0 .082-.017.16-.05.234s-.078.139-.135.193-.121.099-.193.132-.151.05-.237.05c-.082 0-.16-.017-.234-.05s-.139-.077-.193-.132-.098-.119-.129-.193-.047-.152-.047-.234v-7.29c0-.082.016-.16.047-.234s.074-.14.129-.196.119-.101.193-.132.152-.047.234-.047c.086 0 .165.016.237.047s.137.075.193.132.102.121.135.193.05.151.05.237v2.147zM128.484 27.858c.055-.078.123-.139.207-.182s.18-.064.285-.064c.074 0 .146.016.219.047s.137.074.193.129.102.118.135.19.051.151.051.237c0 .082-.016.161-.047.237s-.072.146-.123.208-.105.119-.164.17-.109.094-.152.129c-.141.113-.277.2-.408.261s-.256.107-.377.141-.238.054-.35.062-.215.012-.312.012c-.379 0-.719-.067-1.02-.202s-.555-.331-.76-.589-.361-.575-.471-.952-.164-.81-.164-1.298c0-.504.057-.945.17-1.324s.275-.695.486-.949.465-.445.762-.574.629-.193.996-.193c.336 0 .65.059.943.176s.547.3.764.548.389.564.514.949.188.841.188 1.368c0 .086-.018.165-.051.237s-.076.137-.131.193-.119.101-.193.132-.152.047-.234.047h-2.959c.023.191.062.363.119.516s.131.28.223.384.205.183.34.237.295.082.479.082c.129 0 .24-.012.334-.035s.172-.053.236-.088.119-.073.164-.114.081-.085.108-.128zm-1.705-2.918c-.09.125-.156.258-.199.398s-.076.291-.1.451h2.314c-.027-.172-.066-.333-.115-.483s-.117-.28-.205-.39-.199-.194-.336-.255-.303-.091-.498-.091-.365.032-.508.097-.259.156-.353.273zM139.178 23.353c.355 0 .684.062.984.188s.558.314.771.568.379.57.498.949.179.824.179 1.336c0 .48-.055.909-.164 1.286s-.268.694-.475.952-.462.456-.765.595-.646.208-1.028.208c-.242 0-.458-.025-.647-.076s-.38-.125-.571-.223v2.121c0 .086-.017.165-.05.237s-.078.136-.135.19-.121.098-.193.129-.149.047-.231.047c-.078 0-.155-.017-.231-.05s-.141-.076-.193-.129-.096-.117-.129-.193-.05-.153-.05-.231v-7.295c0-.074.016-.148.047-.223s.074-.139.129-.193.118-.1.19-.135.151-.053.237-.053c.125 0 .229.027.311.082s.162.139.24.252c.347-.226.772-.339 1.276-.339zm.873 1.593c-.098-.125-.221-.219-.369-.281s-.316-.094-.504-.094c-.242 0-.441.045-.598.135s-.28.215-.372.375-.155.352-.19.574-.053.469-.053.738c0 .359.028.656.085.891s.139.421.246.56.236.236.387.293.315.085.495.085c.176 0 .339-.029.489-.088s.279-.159.387-.302.19-.329.249-.56.088-.523.088-.879c0-.316-.027-.598-.082-.844s-.141-.446-.258-.603zM146.089 23.353c.355 0 .684.062.984.188s.559.314.771.568.379.57.498.949.178.824.178 1.336c0 .48-.055.909-.164 1.286s-.268.694-.475.952-.461.456-.764.595-.646.208-1.029.208c-.375 0-.713-.065-1.014-.196s-.555-.324-.764-.58-.371-.573-.484-.952-.17-.816-.17-1.312c0-.527.062-.981.186-1.362s.291-.696.506-.946.473-.435.771-.554.623-.18.97-.18zm.873 1.593c-.098-.125-.221-.219-.369-.281s-.316-.094-.504-.094c-.242 0-.441.045-.598.135s-.279.215-.371.375-.156.352-.191.574-.053.469-.053.738c0 .359.029.656.086.891s.139.421.246.56.236.236.387.293.314.085.494.085c.176 0 .34-.029.49-.088s.279-.159.387-.302.189-.329.248-.56.088-.523.088-.879c0-.316-.027-.598-.082-.844s-.14-.446-.258-.603zM154.783 24.114c.086.117.129.238.129.363 0 .086-.015.167-.044.243s-.072.143-.129.199-.121.102-.193.135-.149.05-.231.05c-.195 0-.355-.076-.48-.229-.043-.055-.106-.103-.19-.144s-.176-.073-.275-.097-.2-.04-.302-.05-.193-.015-.275-.015c-.164.004-.308.023-.431.059s-.226.082-.308.141-.143.124-.182.196-.059.146-.059.22c0 .078.024.154.073.229s.118.138.208.19.195.096.316.129.256.052.404.056c.281.02.549.071.803.155s.476.199.665.346.34.322.451.527.167.437.167.694c0 .281-.059.54-.176.776s-.276.439-.478.609-.434.302-.697.396-.542.141-.835.141c-.262 0-.52-.037-.773-.111s-.479-.173-.677-.296-.357-.263-.48-.419-.185-.312-.185-.469c0-.078.016-.153.047-.226s.072-.137.123-.193.113-.102.188-.135.154-.05.24-.05c.102 0 .198.021.29.064s.167.109.226.199c.012.023.04.058.085.103s.108.093.19.144.181.095.296.132.249.056.401.056c.145 0 .278-.02.401-.059s.229-.09.319-.152.16-.136.211-.22.076-.171.076-.261c0-.141-.083-.262-.249-.363s-.401-.162-.706-.182c-.316-.02-.605-.077-.867-.173s-.487-.221-.677-.375-.336-.336-.439-.545-.155-.44-.155-.694c0-.238.051-.469.152-.691s.25-.42.445-.592.433-.31.712-.413.597-.155.952-.155c.129 0 .276.01.442.029s.337.057.513.111.348.131.516.229.319.228.452.388zM161.203 24.114c.086.117.129.238.129.363 0 .086-.016.167-.045.243s-.072.143-.129.199-.121.102-.193.135-.148.05-.23.05c-.195 0-.355-.076-.48-.229-.043-.055-.107-.103-.191-.144s-.176-.073-.275-.097-.199-.04-.301-.05-.193-.015-.275-.015c-.164.004-.309.023-.432.059s-.225.082-.307.141-.143.124-.182.196-.059.146-.059.22c0 .078.023.154.072.229s.119.138.209.19.195.096.316.129.256.052.404.056c.281.02.549.071.803.155s.475.199.664.346.34.322.451.527.168.437.168.694c0 .281-.059.54-.176.776s-.277.439-.479.609-.434.302-.697.396-.541.141-.834.141c-.262 0-.52-.037-.773-.111s-.48-.173-.678-.296-.357-.263-.48-.419-.184-.312-.184-.469c0-.078.016-.153.047-.226s.072-.137.123-.193.113-.102.188-.135.154-.05.24-.05c.102 0 .197.021.289.064s.168.109.227.199c.012.023.039.058.084.103s.109.093.191.144.18.095.295.132.25.056.402.056c.145 0 .277-.02.4-.059s.23-.09.32-.152.16-.136.211-.22.076-.171.076-.261c0-.141-.084-.262-.25-.363s-.4-.162-.705-.182c-.316-.02-.605-.077-.867-.173s-.488-.221-.678-.375-.336-.336-.439-.545-.154-.44-.154-.694c0-.238.051-.469.152-.691s.25-.42.445-.592.432-.31.711-.413.598-.155.953-.155c.129 0 .275.01.441.029s.338.057.514.111.348.131.516.229.319.228.452.388zM163.409 21.536c0-.082.016-.159.047-.231s.074-.137.129-.193.118-.101.19-.132.151-.047.237-.047c.176 0 .321.057.437.17s.173.258.173.434v.012c0 .18-.06.325-.179.437s-.263.167-.431.167c-.172 0-.315-.058-.431-.173s-.173-.259-.173-.431V21.536zm0 2.426c0-.078.016-.154.047-.229s.074-.139.129-.193.119-.1.193-.135.152-.053.234-.053c.086 0 .166.017.24.05s.139.078.193.135.099.122.132.196.05.15.05.229v4.863c0 .082-.017.16-.05.234s-.078.139-.135.193-.121.099-.193.132-.151.05-.237.05c-.082 0-.16-.017-.234-.05s-.139-.077-.193-.132-.098-.119-.129-.193-.047-.152-.047-.234v-4.863zM169.108 23.353c.355 0 .683.062.981.188s.556.313.771.565.382.568.501.949.179.827.179 1.339c0 .52-.061.97-.182 1.351s-.289.697-.504.949-.472.438-.771.56-.624.182-.976.182c-.254 0-.483-.028-.688-.085s-.401-.142-.589-.255c-.055.113-.132.198-.231.255s-.206.085-.319.085c-.082 0-.16-.017-.234-.05s-.139-.077-.193-.132-.098-.119-.129-.193-.047-.152-.047-.234v-7.289c0-.082.016-.16.047-.234s.074-.14.129-.196.119-.101.193-.132.152-.047.234-.047c.086 0 .165.016.237.047s.137.075.193.132.102.121.135.193.05.151.05.237v2.121c.18-.098.367-.173.562-.226s.413-.08.651-.08zm.873 1.593c-.094-.121-.216-.214-.366-.278s-.319-.097-.507-.097c-.426 0-.733.148-.923.445s-.284.756-.284 1.377c0 .336.025.619.076.85s.127.418.229.562.228.25.378.316.325.1.524.1c.188 0 .356-.032.507-.097s.278-.168.384-.311.186-.329.24-.56.082-.518.082-.861c0-.355-.028-.648-.085-.879s-.142-.418-.255-.567zM173.587 21.536c0-.082.016-.159.047-.231s.074-.137.129-.193.119-.101.191-.132.15-.047.236-.047c.176 0 .322.057.438.17s.172.258.172.434v.012c0 .18-.059.325-.178.437s-.264.167-.432.167c-.172 0-.314-.058-.43-.173s-.174-.259-.174-.431V21.536zm0 2.426c0-.078.016-.154.047-.229s.074-.139.129-.193.119-.1.193-.135.152-.053.234-.053c.086 0 .166.017.24.05s.139.078.193.135.1.122.133.196.049.15.049.229v4.863c0 .082-.016.16-.049.234s-.078.139-.135.193-.121.099-.193.132-.152.05-.238.05c-.082 0-.16-.017-.234-.05s-.139-.077-.193-.132-.098-.119-.129-.193-.047-.152-.047-.234v-4.863zM176.855 21.536c0-.082.016-.16.047-.234s.074-.14.129-.196.119-.101.193-.132.152-.047.234-.047c.086 0 .165.016.237.047s.137.075.193.132.102.121.135.193.05.151.05.237v6.686c.066.008.133.027.199.059s.125.074.176.129.092.116.123.185.047.146.047.231c0 .082-.017.16-.05.234s-.077.139-.132.193-.119.099-.193.132-.152.05-.234.05c-.125 0-.255-.024-.39-.073s-.259-.121-.372-.217-.207-.216-.281-.36-.111-.314-.111-.51v-6.739zM180.667 21.536c0-.082.016-.159.047-.231s.074-.137.129-.193.117-.101.189-.132.152-.047.238-.047c.176 0 .32.057.436.17s.174.258.174.434v.012c0 .18-.061.325-.18.437s-.262.167-.43.167c-.172 0-.316-.058-.432-.173s-.172-.259-.172-.431V21.536zm0 2.426c0-.078.016-.154.047-.229s.074-.139.129-.193.119-.1.193-.135.152-.053.234-.053c.086 0 .166.017.24.05s.139.078.193.135.098.122.131.196.051.15.051.229v4.863c0 .082-.018.16-.051.234s-.078.139-.135.193-.121.099-.193.132-.15.05-.236.05c-.082 0-.16-.017-.234-.05s-.139-.077-.193-.132-.098-.119-.129-.193-.047-.152-.047-.234v-4.863zM184.538 21.53c0-.086.017-.165.05-.237s.077-.136.132-.19.119-.098.193-.129.154-.047.24-.047.167.016.243.047.141.075.193.132.095.121.126.193.047.149.047.231v1.822h.604c.086 0 .166.017.24.05s.138.078.19.135.096.122.129.196.05.15.05.229c0 .09-.017.171-.05.243s-.077.136-.132.19-.118.098-.19.129-.151.047-.237.047h-.604v3.035c0 .074.002.13.006.167s.011.064.021.082.021.032.032.044.025.027.041.047c.035.051.061.088.076.111s.034.043.056.059.05.029.085.041.092.031.17.059c.016.004.057.006.123.006.078 0 .153.015.226.044s.137.071.193.126.103.119.138.193.053.154.053.24-.017.166-.05.24-.077.138-.132.19-.118.095-.19.126-.149.047-.231.047c-.438 0-.814-.118-1.131-.354s-.541-.604-.674-1.104c-.023-.117-.035-.238-.035-.363v-3.035c-.172 0-.315-.058-.431-.173s-.173-.261-.173-.437c0-.078.016-.154.047-.229s.074-.139.129-.193.119-.1.193-.135.152-.053.234-.053V21.53zM189.03 21.536c0-.082.016-.159.047-.231s.074-.137.129-.193.118-.101.19-.132.151-.047.237-.047c.176 0 .321.057.437.17s.173.258.173.434v.012c0 .18-.06.325-.179.437s-.263.167-.431.167c-.172 0-.315-.058-.431-.173s-.173-.259-.173-.431V21.536zm0 2.426c0-.078.016-.154.047-.229s.074-.139.129-.193.119-.1.193-.135.152-.053.234-.053c.086 0 .166.017.24.05s.139.078.193.135.099.122.132.196.05.15.05.229v4.863c0 .082-.017.16-.05.234s-.078.139-.135.193-.121.099-.193.132-.151.05-.237.05c-.082 0-.16-.017-.234-.05s-.139-.077-.193-.132-.098-.119-.129-.193-.047-.152-.047-.234v-4.863zM195.554 27.858c.055-.078.125-.139.209-.182s.178-.064.283-.064c.074 0 .148.016.221.047s.137.074.193.129.102.118.135.19.049.151.049.237c0 .082-.016.161-.047.237s-.072.146-.123.208-.105.119-.164.17-.109.094-.152.129c-.141.113-.275.2-.406.261s-.258.107-.379.141-.236.054-.348.062-.217.012-.314.012c-.379 0-.719-.067-1.02-.202s-.553-.331-.758-.589-.363-.575-.473-.952-.164-.81-.164-1.298c0-.504.057-.945.17-1.324s.275-.695.486-.949.465-.445.762-.574.629-.193.996-.193c.336 0 .65.059.943.176s.549.3.766.548.387.564.512.949.188.841.188 1.368c0 .086-.016.165-.049.237s-.078.137-.133.193-.119.101-.193.132-.152.047-.234.047h-2.959c.023.191.064.363.121.516s.131.28.223.384.205.183.34.237.293.082.477.082c.129 0 .24-.012.334-.035s.174-.053.238-.088.119-.073.164-.114.079-.085.106-.128zm-1.705-2.918c-.09.125-.156.258-.199.398s-.076.291-.1.451h2.314c-.027-.172-.064-.333-.113-.483s-.117-.28-.205-.39-.201-.194-.338-.255-.303-.091-.498-.091-.363.032-.506.097-.261.156-.355.273zM203.38 24.114c.086.117.129.238.129.363 0 .086-.015.167-.044.243s-.072.143-.129.199-.121.102-.193.135-.149.05-.231.05c-.195 0-.355-.076-.48-.229-.043-.055-.106-.103-.19-.144s-.176-.073-.275-.097-.2-.04-.302-.05-.193-.015-.275-.015c-.164.004-.308.023-.431.059s-.226.082-.308.141-.143.124-.182.196-.059.146-.059.22c0 .078.024.154.073.229s.118.138.208.19.195.096.316.129.256.052.404.056c.281.02.549.071.803.155s.476.199.665.346.34.322.451.527.167.437.167.694c0 .281-.059.54-.176.776s-.276.439-.478.609-.434.302-.697.396-.542.141-.835.141c-.262 0-.52-.037-.773-.111s-.479-.173-.677-.296-.357-.263-.48-.419-.185-.312-.185-.469c0-.078.016-.153.047-.226s.072-.137.123-.193.113-.102.188-.135.154-.05.24-.05c.102 0 .198.021.29.064s.167.109.226.199c.012.023.04.058.085.103s.108.093.19.144.181.095.296.132.249.056.401.056c.145 0 .278-.02.401-.059s.229-.09.319-.152.16-.136.211-.22.076-.171.076-.261c0-.141-.083-.262-.249-.363s-.401-.162-.706-.182c-.316-.02-.605-.077-.867-.173s-.487-.221-.677-.375-.336-.336-.439-.545-.155-.44-.155-.694c0-.238.051-.469.152-.691s.25-.42.445-.592.433-.31.712-.413.597-.155.952-.155c.129 0 .276.01.442.029s.337.057.513.111.348.131.516.229.32.228.452.388z"/></g><g><path d="M82.491 241.782c-.039-.09-.059-.17-.059-.24 0-.078.016-.153.047-.226s.073-.138.126-.196.117-.105.193-.141.157-.053.243-.053c.125 0 .237.034.337.103s.173.153.22.255l1.887 4.225 1.863-4.225c.051-.109.126-.196.226-.261s.212-.097.337-.097c.082 0 .16.016.234.047s.138.075.19.132.096.121.129.193.05.149.05.231-.018.164-.053.246l-2.367 5.35v1.699c0 .086-.017.167-.05.243s-.077.141-.132.193-.118.095-.19.126-.149.047-.231.047c-.086 0-.165-.017-.237-.05s-.137-.077-.193-.132-.101-.119-.132-.193-.047-.152-.047-.234v-1.699l-1.172-2.607-1.219-2.736zM93.042 243.353c.355 0 .684.062.984.188s.558.314.771.568.379.57.498.949.179.824.179 1.336c0 .48-.055.909-.164 1.286s-.268.694-.475.952-.462.456-.765.595-.646.208-1.028.208c-.375 0-.713-.065-1.014-.196s-.556-.324-.765-.58-.37-.573-.483-.952-.17-.816-.17-1.312c0-.527.062-.981.185-1.362s.292-.696.507-.946.472-.435.771-.554.621-.18.969-.18zm.873 1.593c-.098-.125-.221-.219-.369-.281s-.316-.094-.504-.094c-.242 0-.441.045-.598.135s-.28.215-.372.375-.155.352-.19.574-.053.469-.053.738c0 .359.028.656.085.891s.139.421.246.56.236.236.387.293.315.085.495.085c.176 0 .339-.029.489-.088s.279-.159.387-.302.19-.329.249-.56.088-.523.088-.879c0-.316-.027-.598-.082-.844s-.141-.446-.258-.603zM101.225 249.077c-.207.125-.415.216-.624.272s-.425.085-.647.085c-.336 0-.651-.064-.946-.193s-.553-.304-.773-.524-.395-.479-.521-.773-.19-.608-.19-.94v-3.041c0-.078.016-.154.047-.229s.074-.139.129-.193.119-.1.193-.135.152-.053.234-.053c.086 0 .166.017.24.05s.139.078.193.135.099.122.132.196.05.15.05.229v3.041c0 .152.027.301.082.445s.135.273.24.387.233.206.384.278.319.108.507.108c.176 0 .338-.033.486-.1s.276-.156.384-.27.191-.242.252-.387.091-.299.091-.463v-3.041c0-.078.017-.154.05-.229s.077-.14.132-.196.119-.102.193-.135.154-.05.24-.05c.078 0 .153.016.226.047s.137.073.193.126.102.117.135.193.05.157.05.243V248.823c0 .09-.018.173-.053.249s-.08.141-.135.193-.119.094-.193.123-.148.044-.223.044c-.113 0-.222-.029-.325-.088s-.183-.146-.233-.267z"/></g><path fill="none" stroke="#000" stroke-linecap="round" stroke-linejoin="round" stroke-miterlimit="10" d="M105.649 79.974l33.733-29.069M105.649 79.974v-8.065M105.649 79.974h7.875"/></svg>