<svg id="Calque_1" xmlns="http://www.w3.org/2000/svg" width="361.482" height="638.842" viewBox="0 0 361.482 638.842"><ellipse fill="none" stroke="#000" stroke-linecap="round" stroke-linejoin="round" stroke-miterlimit="10" cx="182.577" cy="50.633" rx="168.496" ry="39.648"/><ellipse fill="none" stroke="#000" stroke-linecap="round" stroke-linejoin="round" stroke-miterlimit="10" cx="179.81" cy="584.544" rx="168.496" ry="39.648"/><ellipse fill="none" stroke="#000" stroke-linecap="round" stroke-linejoin="round" stroke-miterlimit="10" cx="69.848" cy="48.054" rx="25.49" ry="8.396"/><ellipse fill="none" stroke="#000" stroke-linecap="round" stroke-linejoin="round" stroke-miterlimit="10" cx="298.493" cy="50.633" rx="25.493" ry="8.396"/><path fill="none" stroke="#000" stroke-linecap="round" stroke-linejoin="round" stroke-miterlimit="10" d="M293.058 581.554L69.849 48.054m-1.802 533.5L298.493 50.633"/><path fill="none" stroke="#000" stroke-linecap="round" stroke-miterlimit="10" d="M58.812 581.554h18.47m206.541 0h18.47"/><path fill="#253983" d="M153.84 215.173c18.804.771 37.559-.823 56.354-.886.806-.002.806-1.252 0-1.25-18.795.062-37.551 1.657-56.354.886-.806-.033-.803 1.217 0 1.25z"/><path fill="#293689" d="M153.113 215.541c5.854-2.973 12.082-4.961 18.458-6.46.784-.186.452-1.392-.333-1.205-6.481 1.521-12.81 3.566-18.757 6.586-.718.364-.085 1.442.632 1.079z"/><path fill="#293689" d="M152.482 215.541c4.071 2.499 8.649 4.005 12.883 6.196.715.371 1.347-.708.631-1.077-4.229-2.193-8.812-3.7-12.883-6.198-.689-.423-1.316.658-.631 1.079zm61.722-2.133c-5.854 2.97-12.082 4.961-18.458 6.46-.784.186-.452 1.39.333 1.203 6.481-1.522 12.812-3.566 18.757-6.586.717-.363.085-1.441-.632-1.077z"/><path fill="#293689" d="M214.835 213.408c-4.068-2.499-8.648-4.007-12.883-6.198-.715-.371-1.347.708-.631 1.079 4.231 2.191 8.812 3.698 12.883 6.196.689.425 1.316-.657.631-1.077z"/><g fill="#293689"><path d="M151.635 417.654c18.804.773 37.559-.823 56.354-.885.806-.002.806-1.252 0-1.25-18.795.062-37.551 1.658-56.354.885-.806-.035-.803 1.215 0 1.25z"/><path d="M150.907 418.022c5.854-2.97 12.082-4.96 18.459-6.459.784-.184.452-1.39-.333-1.205-6.479 1.523-12.81 3.568-18.757 6.585-.718.365-.086 1.443.631 1.079z"/><path d="M150.277 418.022c4.072 2.498 8.652 4.005 12.883 6.198.715.371 1.347-.708.631-1.079-4.229-2.193-8.812-3.7-12.883-6.198-.689-.423-1.317.659-.631 1.079zm61.722-2.133c-5.854 2.971-12.082 4.961-18.458 6.46-.784.184-.452 1.39.333 1.205 6.481-1.523 12.812-3.567 18.757-6.586.717-.364.085-1.443-.632-1.079z"/><path d="M212.63 415.889c-4.068-2.499-8.648-4.005-12.883-6.197-.715-.37-1.347.708-.631 1.079 4.231 2.192 8.812 3.699 12.883 6.197.689.423 1.316-.658.631-1.079z"/></g><g fill="#253983"><path d="M157.037 154.387c0-.109.021-.213.062-.312.042-.099.099-.186.172-.262.073-.075.159-.134.258-.176.099-.042.203-.062.312-.062.114 0 .22.021.316.062.096.042.182.101.258.176.075.076.135.162.18.258.044.097.066.202.066.316v8.914h4.859c.104 0 .207.021.309.062.102.042.188.099.262.172.073.073.131.159.176.258.044.099.066.203.066.312s-.022.214-.066.312c-.044.099-.103.185-.176.258-.073.073-.159.132-.258.176-.099.044-.203.066-.312.066h-5.68c-.109 0-.214-.022-.312-.066-.099-.044-.185-.103-.258-.176-.073-.073-.13-.159-.172-.258-.042-.099-.062-.203-.062-.312v-9.718zM170.308 156.809c.474 0 .911.083 1.312.25.401.167.743.419 1.027.758.284.339.505.761.664 1.266.159.505.238 1.099.238 1.781 0 .641-.073 1.212-.219 1.715-.146.503-.357.926-.633 1.27s-.616.608-1.02.793c-.404.185-.861.277-1.371.277-.5 0-.951-.087-1.352-.262-.401-.174-.741-.432-1.02-.773s-.494-.764-.645-1.27c-.151-.505-.227-1.088-.227-1.75 0-.703.082-1.309.246-1.816s.389-.928.676-1.262c.286-.333.629-.579 1.027-.738.402-.16.833-.239 1.297-.239zm1.164 2.125c-.13-.167-.294-.292-.492-.375-.198-.083-.422-.125-.672-.125-.323 0-.589.06-.797.18-.208.12-.374.287-.496.5-.123.214-.207.469-.254.766s-.07.625-.07.984c0 .479.038.875.113 1.188.075.312.185.562.328.746.143.185.315.315.516.391.2.076.42.113.66.113.234 0 .452-.039.652-.117.2-.078.372-.212.516-.402.143-.19.254-.438.332-.746.078-.307.117-.698.117-1.172 0-.422-.037-.797-.109-1.125-.074-.33-.188-.598-.344-.806zM181.898 157.824c.114.156.172.318.172.484 0 .115-.02.223-.059.324s-.097.19-.172.266c-.075.076-.161.136-.258.18-.097.044-.199.066-.309.066-.261 0-.474-.102-.641-.305-.058-.073-.142-.137-.254-.191-.112-.055-.234-.098-.367-.129s-.267-.053-.402-.066c-.136-.013-.258-.02-.367-.02-.219.005-.41.031-.574.078s-.301.109-.41.188-.19.166-.242.262c-.052.097-.078.194-.078.293 0 .104.032.206.098.305.065.099.157.184.277.254.12.07.26.128.422.172.161.044.341.069.539.074.375.026.731.095 1.07.207.338.112.634.266.887.461s.453.43.602.703.223.582.223.926c0 .375-.078.72-.234 1.035-.156.315-.368.586-.637.812s-.578.402-.93.527-.723.188-1.113.188c-.349 0-.693-.049-1.031-.148-.339-.099-.64-.23-.902-.395-.263-.164-.477-.35-.641-.559-.164-.208-.246-.417-.246-.625 0-.104.021-.204.062-.301.042-.096.096-.182.164-.258.067-.075.151-.135.25-.18.099-.044.206-.066.32-.066.135 0 .264.029.387.086.122.058.223.146.301.266.016.031.053.077.113.137.06.06.145.124.254.191.109.068.241.126.395.176.153.05.332.074.535.074.192 0 .371-.026.535-.078.164-.052.306-.12.426-.203.12-.083.213-.181.281-.293.067-.112.102-.228.102-.348 0-.188-.111-.349-.332-.484-.222-.135-.535-.216-.941-.242-.422-.026-.808-.103-1.156-.23-.349-.127-.65-.294-.902-.5-.253-.206-.448-.448-.586-.727-.138-.278-.207-.587-.207-.926 0-.317.067-.625.203-.922.135-.297.333-.56.594-.789.26-.229.577-.413.949-.551.372-.138.795-.207 1.27-.207.172 0 .368.013.59.039.221.026.449.076.684.148.234.073.463.175.688.305.22.131.421.303.598.516zM190.458 157.824c.114.156.172.318.172.484 0 .115-.02.223-.059.324s-.097.19-.172.266c-.076.076-.162.136-.258.18-.097.044-.199.066-.309.066-.261 0-.475-.102-.641-.305-.058-.073-.143-.137-.254-.191-.112-.055-.234-.098-.367-.129s-.268-.053-.402-.066c-.136-.013-.258-.02-.367-.02-.219.005-.41.031-.574.078s-.301.109-.41.188-.19.166-.242.262c-.053.097-.078.194-.078.293 0 .104.032.206.098.305.064.099.157.184.277.254.119.07.26.128.422.172.161.044.341.069.539.074.375.026.731.095 1.07.207.338.112.634.266.887.461.252.195.453.43.602.703s.223.582.223.926c0 .375-.078.72-.234 1.035-.156.315-.369.586-.637.812-.269.227-.578.402-.93.527s-.723.188-1.113.188c-.35 0-.693-.049-1.031-.148-.339-.099-.64-.23-.902-.395-.264-.164-.477-.35-.641-.559-.164-.208-.246-.417-.246-.625 0-.104.021-.204.062-.301.041-.096.096-.182.164-.258.067-.075.15-.135.25-.18.099-.044.205-.066.32-.066.135 0 .264.029.387.086.122.058.223.146.301.266.016.031.053.077.113.137.06.06.145.124.254.191.109.068.24.126.395.176.153.05.332.074.535.074.192 0 .371-.026.535-.078.164-.052.306-.12.426-.203.119-.083.213-.181.281-.293.067-.112.102-.228.102-.348 0-.188-.111-.349-.332-.484-.222-.135-.535-.216-.941-.242-.422-.026-.808-.103-1.156-.23-.35-.127-.65-.294-.902-.5-.253-.206-.448-.448-.586-.727-.139-.278-.207-.587-.207-.926 0-.317.067-.625.203-.922.135-.297.333-.56.594-.789.26-.229.576-.413.949-.551.372-.138.795-.207 1.27-.207.172 0 .368.013.59.039.221.026.449.076.684.148.234.073.463.175.688.305.22.131.42.303.598.516zM202.843 156.809c.473 0 .91.083 1.312.25.4.167.742.419 1.027.758.283.339.504.761.664 1.266.158.505.238 1.099.238 1.781 0 .641-.074 1.212-.219 1.715-.146.503-.357.926-.633 1.27-.277.344-.617.608-1.02.793-.404.185-.861.277-1.371.277-.5 0-.951-.087-1.352-.262-.402-.174-.742-.432-1.02-.773-.279-.341-.494-.764-.645-1.27-.152-.505-.227-1.088-.227-1.75 0-.703.082-1.309.246-1.816s.389-.928.676-1.262c.285-.333.629-.579 1.027-.738.402-.16.832-.239 1.297-.239zm1.164 2.125c-.131-.167-.295-.292-.492-.375-.199-.083-.422-.125-.672-.125-.324 0-.59.06-.797.18-.209.12-.375.287-.496.5-.123.214-.207.469-.254.766s-.07.625-.07.984c0 .479.037.875.113 1.188.074.312.184.562.328.746.143.185.314.315.516.391.199.076.42.113.66.113.234 0 .451-.039.652-.117.199-.078.371-.212.516-.402.143-.19.254-.438.332-.746.078-.307.117-.698.117-1.172 0-.422-.037-.797-.109-1.125-.075-.33-.188-.598-.344-.806zM210.964 164.106c0 .109-.021.214-.062.312-.041.099-.1.185-.176.258-.075.073-.162.132-.262.176-.099.044-.203.066-.312.066s-.213-.022-.312-.066c-.099-.044-.185-.103-.258-.176-.072-.073-.131-.159-.176-.258-.044-.099-.066-.203-.066-.312v-5.672h-.219c-.234 0-.428-.077-.582-.23-.153-.153-.23-.348-.23-.582 0-.104.021-.206.062-.305.042-.099.101-.185.176-.258.076-.073.162-.133.258-.18.097-.047.202-.07.316-.07h.219v-.812c0-.182.014-.342.039-.48.026-.138.059-.26.098-.367.039-.106.082-.199.129-.277s.094-.153.141-.227c.094-.125.209-.252.344-.383.136-.13.289-.246.461-.348s.361-.184.566-.246c.206-.062.432-.094.676-.094.104 0 .207.021.309.062.102.042.188.099.258.172.07.073.128.159.172.258.045.099.066.203.066.312s-.021.214-.066.312c-.044.099-.103.185-.176.258-.072.073-.16.13-.262.172-.102.042-.204.062-.309.062-.125 0-.236.023-.336.07-.099.047-.185.107-.258.18-.072.073-.129.158-.168.254-.039.097-.059.199-.059.309v.812h.812c.104 0 .207.022.309.066.102.044.189.103.262.176.073.073.132.16.176.262.045.102.066.205.066.309 0 .12-.023.228-.07.324-.047.097-.106.181-.18.254-.072.073-.158.13-.258.172-.099.042-.2.062-.305.062h-.812v5.673zM157.316 173.587c0-.109.021-.213.062-.312.042-.099.1-.186.176-.262.075-.075.161-.134.258-.176.096-.042.202-.062.316-.062.109 0 .212.021.309.062.096.042.182.101.258.176.075.076.135.162.18.258.044.097.066.202.066.316v8.914c.088.011.178.038.27.082.091.044.169.103.234.176s.118.155.16.246c.042.091.062.191.062.301s-.022.214-.066.312c-.044.099-.102.185-.172.258-.07.073-.155.132-.254.176-.099.044-.203.066-.312.066-.24 0-.458-.047-.656-.141-.198-.094-.391-.25-.578-.469-.255.193-.546.343-.871.449-.326.107-.679.16-1.059.16-.5 0-.951-.087-1.352-.262-.401-.174-.741-.432-1.02-.773s-.494-.764-.645-1.27c-.151-.505-.227-1.088-.227-1.75 0-.703.082-1.309.246-1.816s.389-.928.676-1.262c.286-.333.629-.579 1.027-.738.398-.159.829-.238 1.293-.238.307 0 .591.034.852.102.26.068.516.167.766.297v-2.82zm-.453 4.547c-.13-.167-.294-.292-.492-.375-.198-.083-.422-.125-.672-.125-.323 0-.589.06-.797.18-.208.12-.374.287-.496.5-.123.214-.207.469-.254.766s-.07.625-.07.984c0 .479.038.875.113 1.188.075.312.185.562.328.746.143.185.315.315.516.391.2.076.42.113.66.113.234 0 .452-.039.652-.117.2-.078.372-.212.516-.402.143-.19.254-.438.332-.746.078-.307.117-.698.117-1.172 0-.422-.037-.797-.109-1.125-.073-.329-.188-.597-.344-.806zM162.399 173.587c0-.109.021-.212.062-.309.042-.096.099-.182.172-.258.073-.075.157-.134.254-.176.096-.042.202-.062.316-.062.234 0 .428.076.582.227.153.151.23.344.23.578v.016c0 .24-.08.434-.238.582-.159.148-.351.223-.574.223-.229 0-.421-.077-.574-.23-.154-.153-.23-.345-.23-.574v-.017zm0 3.235c0-.104.021-.206.062-.305.042-.099.099-.185.172-.258.073-.073.159-.133.258-.18.099-.047.203-.07.312-.07.114 0 .221.022.32.066.099.044.185.104.258.18.073.076.131.163.176.262.044.099.066.201.066.305v6.484c0 .109-.022.214-.066.312-.044.099-.104.185-.18.258-.076.073-.162.132-.258.176-.097.044-.202.066-.316.066-.109 0-.214-.022-.312-.066-.099-.044-.185-.103-.258-.176-.073-.073-.13-.159-.172-.258-.042-.099-.062-.203-.062-.312v-6.484zM172.372 177.025c.114.156.172.318.172.484 0 .115-.02.223-.059.324s-.097.19-.172.266c-.076.076-.162.136-.258.18-.097.044-.199.066-.309.066-.261 0-.474-.102-.641-.305-.058-.073-.142-.137-.254-.191-.112-.055-.234-.098-.367-.129s-.267-.053-.402-.066c-.136-.013-.258-.02-.367-.02-.219.005-.41.031-.574.078s-.301.109-.41.188-.19.166-.242.262c-.052.097-.078.194-.078.293 0 .104.032.206.098.305.065.099.157.184.277.254.12.07.26.128.422.172.161.044.341.069.539.074.375.026.731.095 1.07.207.338.112.634.266.887.461.252.195.453.43.602.703s.223.582.223.926c0 .375-.078.72-.234 1.035-.156.315-.369.586-.637.812-.269.227-.578.402-.93.527s-.723.188-1.113.188c-.349 0-.693-.049-1.031-.148-.339-.099-.64-.23-.902-.395-.263-.164-.477-.35-.641-.559-.164-.208-.246-.417-.246-.625 0-.104.021-.204.062-.301.042-.096.096-.182.164-.258.067-.075.151-.135.25-.18.099-.044.206-.066.32-.066.135 0 .264.029.387.086.122.058.223.146.301.266.016.031.053.077.113.137.06.06.145.124.254.191.109.068.241.126.395.176.153.05.332.074.535.074.192 0 .371-.026.535-.078.164-.052.306-.12.426-.203.12-.083.213-.181.281-.293.067-.112.102-.228.102-.348 0-.188-.111-.349-.332-.484-.222-.135-.535-.216-.941-.242-.422-.026-.808-.103-1.156-.23-.349-.127-.65-.294-.902-.5-.253-.206-.448-.448-.586-.727-.138-.278-.207-.587-.207-.926 0-.317.067-.625.203-.922.135-.297.333-.56.594-.789.26-.229.577-.413.949-.551.372-.138.795-.207 1.27-.207.172 0 .368.013.59.039.221.026.449.076.684.148.234.073.463.175.688.305.22.13.421.302.598.516zM176.119 173.579c0-.114.022-.22.066-.316.044-.096.103-.181.176-.254.073-.073.159-.13.258-.172.099-.042.206-.062.32-.062.114 0 .223.021.324.062.102.042.188.101.258.176.07.076.126.162.168.258.042.097.062.199.062.309v2.43h.805c.114 0 .221.022.32.066.099.044.184.104.254.18s.127.163.172.262c.044.099.066.201.066.305 0 .12-.022.228-.066.324-.044.097-.103.181-.176.254-.073.073-.158.13-.254.172-.097.042-.202.062-.316.062h-.805v4.047c0 .099.002.173.008.223.005.05.014.086.027.109.013.023.027.043.043.059s.034.037.055.062c.047.068.081.117.102.148.021.031.045.058.074.078.028.021.066.039.113.055s.122.042.227.078c.021.005.075.008.164.008.104 0 .204.02.301.059.096.039.182.095.258.168.075.073.137.159.184.258.047.099.07.206.07.32 0 .115-.022.222-.066.32-.044.099-.103.184-.176.254s-.158.126-.254.168c-.097.042-.199.062-.309.062-.583 0-1.086-.157-1.508-.473-.422-.315-.722-.806-.898-1.473-.031-.156-.047-.317-.047-.484v-4.047c-.229 0-.421-.077-.574-.23-.154-.153-.23-.348-.23-.582 0-.104.021-.206.062-.305.042-.099.099-.185.172-.258.073-.073.159-.133.258-.18.099-.047.203-.07.312-.07v-2.43zM185.35 176.009c.338 0 .646.042.926.125.278.083.556.203.832.359.072-.146.176-.262.309-.348s.277-.129.434-.129c.109 0 .212.022.309.066.096.044.182.103.258.176.075.073.134.159.176.258.041.099.062.203.062.312l-.062 5.562c0 .052.016.083.047.094.031.011.052.016.062.016h.008c.114 0 .22.022.316.066.096.044.182.104.258.18.075.076.134.162.176.258.041.097.062.199.062.309 0 .115-.022.222-.066.32-.045.099-.104.184-.18.254s-.163.125-.262.164c-.1.039-.203.059-.312.059h-.016c-.287 0-.538-.06-.754-.18-.217-.12-.413-.278-.59-.477-.261.224-.561.391-.898.5-.339.109-.703.164-1.094.164-.5 0-.951-.087-1.352-.262-.401-.174-.741-.432-1.02-.773s-.494-.764-.645-1.27c-.151-.505-.227-1.088-.227-1.75 0-.703.082-1.309.246-1.816s.389-.928.676-1.262c.286-.333.629-.579 1.027-.738.4-.157.83-.237 1.294-.237zm1.172 2.125c-.131-.161-.293-.285-.488-.371s-.424-.129-.684-.129c-.562 0-.973.197-1.23.59-.258.394-.387 1.007-.387 1.84 0 .479.039.875.117 1.188s.188.562.328.746c.141.185.311.315.512.391.2.076.42.113.66.113.239 0 .459-.038.66-.113.2-.075.371-.207.512-.395s.25-.436.328-.746c.078-.31.117-.704.117-1.184 0-.484-.041-.88-.121-1.188-.081-.307-.189-.554-.324-.742zM193.808 176.486c.156-.088.304-.161.441-.219.138-.057.274-.105.41-.145s.271-.067.406-.086c.136-.018.278-.027.43-.027.386 0 .771.074 1.156.223s.733.363 1.043.645.562.623.754 1.023c.192.401.289.854.289 1.359v4.047c0 .12-.023.23-.07.332s-.106.188-.18.258-.159.125-.258.164-.198.059-.297.059c-.114 0-.22-.022-.316-.066-.097-.044-.183-.103-.258-.176-.075-.073-.136-.159-.18-.258-.044-.099-.066-.203-.066-.312v-4.047c0-.208-.04-.411-.121-.609-.081-.198-.192-.372-.336-.523-.144-.151-.313-.271-.512-.359-.198-.088-.414-.133-.648-.133-.261 0-.491.05-.691.148-.2.099-.37.228-.508.387s-.242.335-.312.527c-.07.193-.105.38-.105.562v4.047c0 .109-.022.214-.066.312-.044.099-.104.185-.18.258-.075.073-.161.132-.258.176-.097.044-.202.066-.316.066-.109 0-.214-.022-.312-.066-.099-.044-.185-.103-.258-.176-.073-.073-.13-.159-.172-.258-.042-.099-.062-.203-.062-.312V176.822c0-.104.021-.206.062-.305.042-.099.099-.185.172-.258.073-.073.159-.133.258-.18s.203-.07.312-.07c.156 0 .302.043.438.129s.238.202.311.348zM205.907 181.962c.072-.114.168-.2.285-.258.117-.057.251-.086.402-.086.094 0 .188.02.285.059.096.039.181.097.254.172.072.076.131.162.176.258.044.097.066.202.066.316 0 .167-.045.323-.133.469-.089.146-.199.279-.332.398-.133.12-.27.224-.41.312-.141.089-.261.159-.359.211-.417.203-.894.305-1.43.305-.5 0-.951-.087-1.352-.262-.401-.174-.741-.432-1.02-.773s-.494-.764-.645-1.27c-.151-.505-.227-1.088-.227-1.75 0-.703.082-1.309.246-1.816s.389-.928.676-1.262c.286-.333.629-.579 1.027-.738.398-.159.829-.238 1.293-.238.557 0 1.052.113 1.484.34.432.227.786.538 1.062.934.094.141.141.292.141.453 0 .12-.023.229-.07.328-.047.099-.107.185-.18.258-.073.073-.158.13-.254.172-.097.042-.191.062-.285.062-.297 0-.529-.122-.695-.367-.109-.161-.264-.294-.461-.398-.198-.104-.445-.156-.742-.156-.562 0-.973.197-1.23.59-.258.394-.387 1.007-.387 1.84 0 .479.039.875.117 1.188s.188.562.328.746c.141.185.311.315.512.391.2.076.42.113.66.113.25 0 .471-.035.664-.105.195-.073.372-.217.534-.436zM214.512 182.017c.073-.104.166-.185.277-.242.112-.057.238-.086.379-.086.1 0 .197.021.293.062.097.042.183.099.258.172.076.073.136.158.18.254.045.097.066.202.066.316 0 .109-.021.215-.062.316-.041.102-.096.194-.164.277-.067.083-.141.159-.219.227-.078.068-.146.125-.203.172-.188.151-.368.267-.543.348-.174.081-.342.144-.504.188-.161.044-.316.072-.465.082-.148.011-.287.016-.418.016-.505 0-.958-.09-1.359-.27-.4-.18-.738-.441-1.012-.785s-.482-.767-.629-1.27c-.146-.502-.219-1.079-.219-1.73 0-.672.076-1.26.227-1.766.151-.505.367-.927.648-1.266.281-.338.62-.594 1.016-.766.396-.172.839-.258 1.328-.258.448 0 .867.078 1.258.234s.73.4 1.02.73c.289.331.518.753.684 1.266.167.513.25 1.121.25 1.824 0 .115-.021.22-.066.316-.044.097-.103.183-.176.258-.072.076-.158.134-.258.176-.099.042-.203.062-.312.062h-3.945c.031.255.085.484.16.688.076.203.175.374.297.512.123.138.273.244.453.316.18.073.393.109.637.109.172 0 .32-.016.445-.047s.23-.07.316-.117.159-.098.219-.152c.059-.053.107-.109.143-.166zm-2.273-3.891c-.119.167-.208.344-.266.531-.057.188-.102.388-.133.602h3.086c-.036-.229-.087-.444-.152-.645-.064-.2-.156-.374-.273-.52-.117-.146-.267-.259-.449-.34-.182-.081-.403-.121-.664-.121-.26 0-.485.043-.676.129-.19.087-.348.208-.473.364z"/></g><g fill="#253983"><path d="M157.012 456.186c-.339.714-.794 1.238-1.367 1.574-.573.336-1.271.501-2.094.496l-1.586-.008h-1.586c-.011 0-.019.001-.023.004-.005.003-.011.004-.016.004h-.039c-.109 0-.214-.022-.312-.066-.099-.044-.185-.103-.258-.176-.073-.073-.13-.159-.172-.258-.042-.099-.062-.203-.062-.312v-9.719c0-.109.021-.214.062-.312.042-.099.099-.187.172-.262.073-.075.159-.134.258-.176.099-.042.203-.062.312-.062h3.25c.672 0 1.26.11 1.766.332.505.222.927.563 1.266 1.027.338.464.594 1.052.766 1.766s.258 1.562.258 2.547c0 .802-.048 1.492-.145 2.07-.097.578-.247 1.088-.45 1.531zm-3.461.453c.448 0 .825-.074 1.133-.223.307-.148.556-.384.746-.707.19-.323.329-.742.418-1.258.088-.516.133-1.138.133-1.867 0-.567-.029-1.099-.086-1.594-.058-.495-.173-.925-.348-1.289-.175-.364-.421-.651-.738-.859-.318-.208-.737-.312-1.258-.312h-2.43v8.109h2.43zM160.337 447.725c0-.109.021-.212.062-.309.042-.097.099-.183.172-.258.073-.075.157-.134.254-.176.096-.042.202-.062.316-.062.234 0 .428.075.582.227.153.151.23.344.23.578v.016c0 .239-.08.434-.238.582-.159.148-.351.223-.574.223-.229 0-.421-.077-.574-.23-.154-.153-.23-.345-.23-.574v-.017zm0 3.234c0-.104.021-.206.062-.305.042-.099.099-.185.172-.258.073-.073.159-.133.258-.18.099-.047.203-.07.312-.07.114 0 .221.022.32.066.099.044.185.104.258.18.073.075.131.163.176.262.044.099.066.2.066.305v6.484c0 .109-.022.214-.066.312-.044.099-.104.185-.18.258-.076.073-.162.132-.258.176-.097.044-.202.066-.316.066-.109 0-.214-.022-.312-.066-.099-.044-.185-.103-.258-.176-.073-.073-.13-.159-.172-.258-.042-.099-.062-.203-.062-.312v-6.484zM170.31 451.162c.114.156.172.317.172.484 0 .114-.02.223-.059.324s-.097.19-.172.266c-.076.075-.162.136-.258.18-.097.044-.199.066-.309.066-.261 0-.474-.102-.641-.305-.058-.073-.142-.137-.254-.191-.112-.055-.234-.098-.367-.129s-.267-.054-.402-.066c-.136-.013-.258-.02-.367-.02-.219.005-.41.031-.574.078s-.301.109-.41.188-.19.165-.242.262c-.052.097-.078.194-.078.293 0 .104.032.206.098.305.065.099.157.184.277.254.12.07.26.128.422.172.161.044.341.069.539.074.375.026.731.095 1.07.207.338.112.634.266.887.461.252.195.453.43.602.703s.223.582.223.926c0 .375-.078.72-.234 1.035s-.369.586-.637.812c-.269.227-.578.402-.93.527s-.723.188-1.113.188c-.349 0-.693-.05-1.031-.148-.339-.099-.64-.23-.902-.395-.263-.164-.477-.351-.641-.559s-.246-.417-.246-.625c0-.104.021-.204.062-.301.042-.097.096-.183.164-.258.067-.075.151-.136.25-.18.099-.044.206-.066.32-.066.135 0 .264.028.387.086.122.058.223.146.301.266.016.031.053.077.113.137.06.06.145.124.254.191s.241.126.395.176c.153.05.332.074.535.074.192 0 .371-.026.535-.078s.306-.12.426-.203c.12-.083.213-.181.281-.293.067-.112.102-.228.102-.348 0-.188-.111-.349-.332-.484-.222-.136-.535-.216-.941-.242-.422-.026-.808-.103-1.156-.23-.349-.128-.65-.294-.902-.5-.253-.206-.448-.448-.586-.727-.138-.278-.207-.587-.207-.926 0-.317.067-.625.203-.922.135-.297.333-.56.594-.789.26-.229.577-.413.949-.551.372-.138.795-.207 1.27-.207.172 0 .368.013.59.039.221.026.449.075.684.148s.463.175.688.305c.22.131.421.302.598.516zM174.057 447.717c0-.114.022-.22.066-.316.044-.097.103-.181.176-.254.073-.073.159-.13.258-.172.099-.042.206-.062.32-.062.114 0 .223.021.324.062s.188.101.258.176.126.161.168.258c.042.097.062.199.062.309v2.43h.805c.114 0 .221.022.32.066.099.044.184.104.254.18s.127.163.172.262c.044.099.066.2.066.305 0 .12-.022.228-.066.324-.044.097-.103.181-.176.254-.073.073-.158.13-.254.172-.097.042-.202.062-.316.062h-.805v4.047c0 .099.002.173.008.223.005.05.014.086.027.109.013.023.027.043.043.059s.034.036.055.062c.047.067.081.117.102.148.021.031.045.058.074.078.028.021.066.039.113.055s.122.042.227.078c.021.005.075.008.164.008.104 0 .204.02.301.059.096.039.182.095.258.168.075.073.137.159.184.258s.07.206.07.32-.022.222-.066.32c-.044.099-.103.184-.176.254s-.158.126-.254.168c-.097.042-.199.062-.309.062-.583 0-1.086-.157-1.508-.473s-.722-.806-.898-1.473c-.031-.156-.047-.317-.047-.484v-4.047c-.229 0-.421-.077-.574-.23-.154-.153-.23-.348-.23-.582 0-.104.021-.206.062-.305.042-.099.099-.185.172-.258.073-.073.159-.133.258-.18.099-.047.203-.07.312-.07v-2.43zM183.288 450.147c.339 0 .647.042.926.125.279.083.557.203.832.359.073-.146.176-.262.309-.348s.277-.129.434-.129c.109 0 .213.022.309.066.097.044.183.103.258.176.076.073.135.159.176.258.042.099.062.203.062.312l-.062 5.562c0 .052.016.083.047.094s.053.016.062.016h.008c.115 0 .221.022.316.066.097.044.183.104.258.18.076.075.135.161.176.258.042.097.062.199.062.309 0 .114-.021.222-.066.32-.044.099-.104.184-.18.254-.075.07-.162.125-.262.164-.099.039-.203.059-.312.059h-.016c-.286 0-.537-.06-.754-.18-.216-.12-.412-.278-.59-.477-.26.224-.56.391-.898.5-.338.109-.703.164-1.094.164-.5 0-.95-.087-1.352-.262-.4-.175-.741-.433-1.019-.773-.279-.341-.494-.765-.645-1.27-.151-.505-.227-1.089-.227-1.75 0-.703.082-1.309.246-1.816s.389-.929.676-1.262.628-.579 1.027-.738.83-.237 1.293-.237zm1.172 2.125c-.13-.161-.293-.285-.488-.371s-.423-.129-.684-.129c-.562 0-.973.196-1.23.59s-.387 1.007-.387 1.84c0 .479.039.875.117 1.188s.188.562.328.746.312.315.512.391c.201.075.421.113.66.113.24 0 .46-.038.66-.113.201-.075.371-.207.512-.395s.25-.437.328-.746.117-.704.117-1.184c0-.484-.04-.88-.121-1.188-.08-.308-.189-.555-.324-.742zM191.747 450.623c.156-.089.303-.161.441-.219.137-.058.273-.105.41-.145.135-.039.27-.067.406-.086.135-.019.277-.027.43-.027.385 0 .77.074 1.156.223.385.148.732.363 1.043.645.309.281.561.622.754 1.023.191.401.289.854.289 1.359v4.047c0 .12-.023.23-.07.332s-.107.188-.18.258c-.074.07-.16.125-.258.164-.1.039-.199.059-.297.059-.115 0-.221-.022-.316-.066-.098-.044-.184-.103-.258-.176-.076-.073-.137-.159-.18-.258-.045-.099-.066-.203-.066-.312v-4.047c0-.208-.041-.411-.121-.609-.082-.198-.193-.372-.336-.523-.145-.151-.314-.271-.512-.359-.199-.089-.414-.133-.648-.133-.262 0-.492.05-.691.148-.201.099-.371.228-.508.387-.139.159-.242.335-.312.527s-.105.38-.105.562v4.047c0 .109-.023.214-.066.312-.045.099-.105.185-.18.258-.076.073-.162.132-.258.176-.098.044-.203.066-.316.066-.109 0-.215-.022-.312-.066-.1-.044-.186-.103-.258-.176-.074-.073-.131-.159-.172-.258-.043-.099-.062-.203-.062-.312V450.959c0-.104.02-.206.062-.305.041-.099.098-.185.172-.258.072-.073.158-.133.258-.18.098-.047.203-.07.312-.07.156 0 .301.043.438.129.133.087.237.203.311.348zM203.844 456.1c.073-.114.168-.2.285-.258s.252-.086.402-.086c.094 0 .189.02.285.059.097.039.182.097.254.172.073.075.132.161.176.258.045.097.066.202.066.316 0 .167-.044.323-.133.469-.088.146-.199.278-.332.398s-.27.224-.41.312-.26.159-.359.211c-.416.203-.893.305-1.43.305-.5 0-.95-.087-1.352-.262-.4-.175-.74-.433-1.02-.773-.278-.341-.493-.765-.645-1.27-.15-.505-.227-1.089-.227-1.75 0-.703.082-1.309.246-1.816s.39-.929.676-1.262c.287-.333.629-.579 1.027-.738s.83-.238 1.293-.238c.558 0 1.053.113 1.484.34.433.227.787.538 1.062.934.094.141.141.292.141.453 0 .12-.023.229-.07.328s-.106.185-.18.258c-.072.073-.157.13-.254.172-.096.042-.191.062-.285.062-.297 0-.528-.122-.695-.367-.109-.161-.263-.294-.461-.398-.197-.104-.445-.156-.742-.156-.562 0-.973.196-1.23.59s-.387 1.007-.387 1.84c0 .479.039.875.117 1.188s.188.562.328.746.312.315.512.391c.201.075.421.113.66.113.25 0 .472-.035.664-.105.197-.073.373-.217.534-.436zM212.451 456.155c.073-.104.165-.185.277-.242s.238-.086.379-.086c.099 0 .196.021.293.062s.183.099.258.172.136.157.18.254.066.202.066.316c0 .109-.021.215-.062.316s-.097.194-.164.277-.141.159-.219.227-.146.125-.203.172c-.188.151-.368.267-.543.348s-.343.144-.504.188-.316.071-.465.082-.288.016-.418.016c-.505 0-.958-.09-1.359-.27s-.738-.441-1.012-.785-.483-.767-.629-1.27-.219-1.079-.219-1.73c0-.672.075-1.261.227-1.766s.367-.927.648-1.266.62-.594 1.016-.766.839-.258 1.328-.258c.448 0 .867.078 1.258.234s.73.399 1.02.73.517.753.684 1.266.25 1.121.25 1.824c0 .114-.022.22-.066.316s-.103.183-.176.258-.159.134-.258.176-.203.062-.312.062h-3.945c.031.255.085.484.16.688s.175.374.297.512.273.243.453.316.392.109.637.109c.172 0 .32-.016.445-.047s.23-.07.316-.117.159-.098.219-.152.107-.109.143-.166zm-2.274-3.891c-.12.167-.208.344-.266.531s-.102.388-.133.602h3.086c-.036-.229-.087-.444-.152-.645s-.156-.374-.273-.52-.267-.259-.449-.34-.403-.121-.664-.121-.485.043-.676.129-.348.208-.473.364zM133.893 469.823c.156-.088.303-.161.441-.219.138-.057.274-.105.41-.145.135-.039.271-.067.406-.086.135-.018.278-.027.43-.027.245 0 .487.03.727.09.239.061.466.143.68.246.213.104.414.229.602.375s.352.308.492.484c.062.068.108.146.137.234.028.089.043.175.043.258 0 .109-.021.214-.062.312-.042.1-.097.188-.164.266-.068.078-.151.14-.25.184-.099.045-.203.066-.312.066-.146 0-.253-.02-.32-.059-.068-.039-.134-.091-.199-.156-.065-.064-.145-.142-.238-.23-.094-.088-.242-.188-.445-.297-.24-.099-.469-.148-.688-.148-.261 0-.491.05-.691.148-.201.1-.37.229-.508.387-.138.159-.242.335-.312.527-.07.193-.105.381-.105.562v4.047c0 .109-.022.214-.066.312-.044.1-.104.186-.18.258-.076.073-.162.132-.258.176-.097.045-.202.066-.316.066-.109 0-.214-.021-.312-.066-.099-.044-.185-.103-.258-.176-.073-.072-.13-.158-.172-.258-.042-.099-.062-.203-.062-.312V470.157c0-.104.021-.205.062-.305.042-.099.099-.185.172-.258.073-.072.159-.133.258-.18.099-.047.203-.07.312-.07.156 0 .302.043.438.129.131.089.235.205.308.35zM144.875 475.355c.073-.104.165-.185.277-.242.112-.057.238-.086.379-.086.099 0 .196.021.293.062.096.042.182.1.258.172.075.073.135.158.18.254.044.097.066.202.066.316 0 .109-.021.215-.062.316-.042.102-.097.194-.164.277-.068.084-.141.159-.219.227-.078.068-.146.125-.203.172-.188.151-.369.268-.543.348-.175.081-.343.144-.504.188-.162.045-.316.072-.465.082-.148.011-.288.016-.418.016-.505 0-.958-.09-1.359-.27-.401-.18-.738-.441-1.012-.785s-.483-.767-.629-1.27c-.146-.502-.219-1.079-.219-1.73 0-.672.075-1.26.227-1.766.151-.505.367-.927.648-1.266.281-.338.62-.594 1.016-.766.396-.172.838-.258 1.328-.258.448 0 .867.078 1.258.234s.73.4 1.02.73c.289.331.517.753.684 1.266.167.514.25 1.121.25 1.824 0 .115-.022.221-.066.316-.044.097-.103.183-.176.258-.073.076-.159.135-.258.176-.099.042-.203.062-.312.062h-3.945c.031.256.084.484.16.688.075.203.174.374.297.512.122.139.273.244.453.316.18.073.392.109.637.109.172 0 .32-.016.445-.047s.23-.07.316-.117.159-.098.219-.152c.058-.053.106-.109.143-.166zm-2.274-3.891c-.12.167-.208.344-.266.531-.058.188-.102.389-.133.602h3.086c-.037-.229-.087-.443-.152-.645-.065-.2-.156-.373-.273-.52-.117-.146-.267-.259-.449-.34-.183-.08-.404-.121-.664-.121-.261 0-.486.043-.676.129-.19.087-.348.208-.473.364zM149.692 466.925c0-.109.021-.212.062-.309.042-.096.099-.182.172-.258.073-.075.157-.134.254-.176.096-.041.202-.062.316-.062.234 0 .428.076.582.227.153.151.23.344.23.578v.016c0 .24-.08.434-.238.582-.159.148-.351.223-.574.223-.229 0-.421-.076-.574-.23-.154-.153-.23-.345-.23-.574v-.017zm0 3.234c0-.104.021-.205.062-.305.042-.099.099-.185.172-.258.073-.072.159-.133.258-.18.099-.047.203-.07.312-.07.114 0 .221.022.32.066.099.045.185.104.258.18.073.076.131.163.176.262.044.1.066.201.066.305v6.484c0 .109-.022.214-.066.312-.044.1-.104.186-.18.258-.076.073-.162.132-.258.176-.097.045-.202.066-.316.066-.109 0-.214-.021-.312-.066-.099-.044-.185-.103-.258-.176-.073-.072-.13-.158-.172-.258-.042-.099-.062-.203-.062-.312v-6.484zM155.603 469.823c.156-.088.303-.161.441-.219.138-.057.274-.105.41-.145.135-.039.271-.067.406-.086.135-.018.278-.027.43-.027.385 0 .771.074 1.156.223.385.148.733.363 1.043.645.31.281.561.623.754 1.023.192.401.289.854.289 1.359v4.047c0 .12-.023.23-.07.332s-.107.188-.18.258-.159.125-.258.164c-.099.039-.198.059-.297.059-.115 0-.22-.021-.316-.066-.097-.044-.183-.103-.258-.176-.076-.072-.136-.158-.18-.258-.044-.099-.066-.203-.066-.312v-4.047c0-.208-.041-.411-.121-.609-.081-.197-.193-.372-.336-.523-.144-.15-.314-.271-.512-.359-.198-.088-.414-.133-.648-.133-.261 0-.491.05-.691.148-.201.1-.37.229-.508.387-.138.159-.242.335-.312.527-.07.193-.105.381-.105.562v4.047c0 .109-.022.214-.066.312-.044.1-.104.186-.18.258-.076.073-.162.132-.258.176-.097.045-.202.066-.316.066-.109 0-.214-.021-.312-.066-.099-.044-.185-.103-.258-.176-.073-.072-.13-.158-.172-.258-.042-.099-.062-.203-.062-.312V470.159c0-.104.021-.205.062-.305.042-.099.099-.185.172-.258.073-.072.159-.133.258-.18.099-.047.203-.07.312-.07.156 0 .302.043.438.129.134.087.238.203.311.348zM164.068 466.917c0-.114.022-.22.066-.316.044-.096.103-.181.176-.254.073-.072.159-.13.258-.172.099-.041.206-.062.32-.062.114 0 .223.021.324.062.102.042.188.101.258.176.07.076.126.162.168.258.042.097.062.199.062.309v2.43h.805c.114 0 .221.022.32.066.099.045.184.104.254.18s.127.163.172.262c.044.1.066.201.066.305 0 .12-.022.229-.066.324-.044.097-.103.182-.176.254-.073.073-.158.131-.254.172-.097.042-.202.062-.316.062h-.805v4.047c0 .1.002.174.008.223.005.05.014.086.027.109.013.023.027.043.043.059s.034.037.055.062c.047.068.081.117.102.148.021.031.045.058.074.078.028.021.066.039.113.055s.122.042.227.078c.021.006.075.008.164.008.104 0 .204.02.301.059.096.039.182.096.258.168.075.073.137.159.184.258.047.1.07.206.07.32 0 .115-.022.222-.066.32-.044.1-.103.184-.176.254s-.158.127-.254.168c-.097.042-.199.062-.309.062-.583 0-1.086-.157-1.508-.473-.422-.314-.722-.806-.898-1.473-.031-.156-.047-.317-.047-.484v-4.047c-.229 0-.421-.076-.574-.23-.154-.153-.23-.348-.23-.582 0-.104.021-.205.062-.305.042-.099.099-.185.172-.258.073-.072.159-.133.258-.18.099-.047.203-.07.312-.07v-2.43zM171.612 469.823c.156-.088.303-.161.441-.219.138-.057.274-.105.41-.145.135-.039.271-.067.406-.086.135-.018.278-.027.43-.027.245 0 .487.03.727.09.239.061.466.143.68.246.213.104.414.229.602.375s.352.308.492.484c.062.068.108.146.137.234.028.089.043.175.043.258 0 .109-.021.214-.062.312-.042.1-.097.188-.164.266-.068.078-.151.14-.25.184-.099.045-.203.066-.312.066-.146 0-.253-.02-.32-.059-.068-.039-.134-.091-.199-.156-.065-.064-.145-.142-.238-.23-.094-.088-.242-.188-.445-.297-.24-.099-.469-.148-.688-.148-.261 0-.491.05-.691.148-.201.1-.37.229-.508.387-.138.159-.242.335-.312.527-.07.193-.105.381-.105.562v4.047c0 .109-.022.214-.066.312-.044.1-.104.186-.18.258-.076.073-.162.132-.258.176-.097.045-.202.066-.316.066-.109 0-.214-.021-.312-.066-.099-.044-.185-.103-.258-.176-.073-.072-.13-.158-.172-.258-.042-.099-.062-.203-.062-.312V470.157c0-.104.021-.205.062-.305.042-.099.099-.185.172-.258.073-.072.159-.133.258-.18.099-.047.203-.07.312-.07.156 0 .302.043.438.129.131.089.235.205.308.35zM181.492 469.347c.474 0 .911.084 1.312.25.401.167.743.42 1.027.758.284.339.505.761.664 1.266.159.506.238 1.1.238 1.781 0 .641-.073 1.213-.219 1.715-.146.503-.356.926-.633 1.27s-.616.608-1.02.793c-.403.186-.86.277-1.371.277-.5 0-.951-.087-1.352-.262-.401-.174-.741-.432-1.02-.773s-.494-.764-.645-1.27c-.151-.505-.227-1.088-.227-1.75 0-.703.082-1.309.246-1.816s.389-.928.676-1.262c.286-.333.629-.579 1.027-.738.402-.159.833-.239 1.297-.239zm1.164 2.125c-.13-.166-.294-.291-.492-.375-.198-.083-.422-.125-.672-.125-.323 0-.589.061-.797.18-.208.12-.374.287-.496.5-.123.214-.207.469-.254.766s-.07.625-.07.984c0 .479.038.875.113 1.188.075.312.185.562.328.746.143.186.315.315.516.391.2.076.421.113.66.113.234 0 .452-.039.652-.117s.372-.212.516-.402c.144-.189.254-.438.332-.746.078-.307.117-.697.117-1.172 0-.422-.036-.797-.109-1.125s-.188-.597-.344-.806zM192.325 466.925c0-.109.02-.213.062-.312.041-.099.1-.186.176-.262.074-.075.16-.134.258-.176.096-.041.201-.062.316-.062.109 0 .211.021.309.062.096.042.182.101.258.176.074.076.135.162.18.258.043.097.066.202.066.316v8.914c.088.011.178.038.27.082.09.045.168.104.234.176.064.073.117.155.16.246.041.092.062.191.062.301s-.023.214-.066.312c-.045.1-.102.186-.172.258-.07.073-.156.132-.254.176-.1.045-.203.066-.312.066-.24 0-.459-.047-.656-.141-.199-.094-.391-.25-.578-.469-.256.193-.547.343-.871.449-.326.107-.68.16-1.059.16-.5 0-.951-.087-1.352-.262-.402-.174-.742-.432-1.02-.773-.279-.341-.494-.764-.645-1.27-.152-.505-.227-1.088-.227-1.75 0-.703.082-1.309.246-1.816s.389-.928.676-1.262c.285-.333.629-.579 1.027-.738.398-.158.828-.238 1.293-.238.307 0 .59.034.852.102.26.068.516.167.766.297v-2.82zm-.453 4.547c-.131-.166-.295-.291-.492-.375-.199-.083-.422-.125-.672-.125-.324 0-.59.061-.797.18-.209.12-.375.287-.496.5-.123.214-.207.469-.254.766s-.07.625-.07.984c0 .479.037.875.113 1.188.074.312.184.562.328.746.143.186.314.315.516.391.199.076.42.113.66.113.234 0 .451-.039.652-.117.199-.078.371-.212.516-.402.143-.189.254-.438.332-.746.078-.307.117-.697.117-1.172 0-.422-.037-.797-.109-1.125-.075-.33-.188-.597-.344-.806zM202.344 476.98c-.275.167-.553.288-.832.363-.278.076-.566.113-.863.113-.447 0-.868-.086-1.262-.258-.393-.172-.736-.404-1.031-.699-.294-.294-.525-.638-.695-1.031-.169-.393-.254-.811-.254-1.254v-4.055c0-.104.021-.205.062-.305.042-.099.1-.185.172-.258.073-.072.159-.133.258-.18.1-.047.203-.07.312-.07.115 0 .222.022.32.066.1.045.186.104.258.18.073.076.132.163.176.262.045.1.066.201.066.305v4.055c0 .203.037.401.109.594.073.193.18.365.32.516.141.151.312.275.512.371.201.097.426.145.676.145.234 0 .451-.044.648-.133.198-.088.369-.208.512-.359.144-.15.256-.322.336-.516.081-.192.121-.398.121-.617v-4.055c0-.104.022-.205.066-.305.045-.099.104-.186.176-.262.073-.075.159-.135.258-.18.1-.044.206-.066.32-.066.104 0 .205.021.301.062.097.042.183.098.258.168.076.07.136.156.18.258.045.102.066.21.066.324V476.644c0 .12-.023.23-.07.332s-.106.188-.18.258c-.072.07-.158.125-.258.164-.099.039-.197.059-.297.059-.15 0-.295-.039-.434-.117-.136-.079-.238-.198-.307-.36zM211.06 475.3c.073-.114.168-.2.285-.258.117-.057.251-.086.402-.086.094 0 .188.02.285.059s.181.097.254.172c.073.076.132.162.176.258.044.097.066.202.066.316 0 .167-.044.323-.133.469-.089.146-.199.279-.332.398-.133.12-.27.225-.41.312-.141.089-.261.159-.359.211-.417.203-.894.305-1.43.305-.5 0-.95-.087-1.352-.262-.401-.174-.741-.432-1.02-.773-.278-.341-.493-.764-.645-1.27-.151-.505-.227-1.088-.227-1.75 0-.703.082-1.309.246-1.816s.39-.928.676-1.262c.286-.333.629-.579 1.027-.738.398-.158.829-.238 1.293-.238.558 0 1.052.113 1.484.34s.786.538 1.062.934c.094.141.141.292.141.453 0 .12-.023.229-.07.328-.047.1-.106.186-.18.258-.073.073-.157.131-.254.172-.097.042-.191.062-.285.062-.297 0-.528-.122-.695-.367-.109-.161-.263-.294-.461-.398-.198-.104-.445-.156-.742-.156-.562 0-.973.197-1.23.59-.258.394-.387 1.007-.387 1.84 0 .479.039.875.117 1.188s.188.562.328.746c.141.186.312.315.512.391.2.076.421.113.66.113.25 0 .472-.035.664-.105s.373-.217.534-.436zM219.667 475.355c.072-.104.165-.185.277-.242.111-.057.238-.086.379-.086.099 0 .196.021.293.062.096.042.182.1.258.172.075.073.135.158.18.254.044.097.066.202.066.316 0 .109-.021.215-.062.316-.042.102-.097.194-.164.277-.068.084-.141.159-.219.227-.078.068-.146.125-.203.172-.188.151-.369.268-.543.348-.175.081-.343.144-.504.188-.162.045-.316.072-.465.082-.148.011-.288.016-.418.016-.506 0-.959-.09-1.359-.27-.401-.18-.738-.441-1.012-.785s-.483-.767-.629-1.27c-.146-.502-.219-1.079-.219-1.73 0-.672.075-1.26.227-1.766.15-.505.367-.927.648-1.266.281-.338.619-.594 1.016-.766.396-.172.838-.258 1.328-.258.447 0 .867.078 1.258.234s.73.4 1.02.73c.289.331.517.753.684 1.266.166.514.25 1.121.25 1.824 0 .115-.022.221-.066.316-.045.097-.104.183-.176.258-.073.076-.159.135-.258.176-.1.042-.203.062-.312.062h-3.945c.031.256.084.484.16.688.075.203.174.374.297.512.122.139.273.244.453.316.18.073.392.109.637.109.172 0 .32-.016.445-.047s.23-.07.316-.117.158-.098.219-.152c.058-.053.106-.109.143-.166zm-2.274-3.891c-.12.167-.209.344-.266.531-.058.188-.102.389-.133.602h3.086c-.037-.229-.088-.443-.152-.645-.065-.2-.156-.373-.273-.52-.117-.146-.268-.259-.449-.34-.183-.08-.404-.121-.664-.121-.261 0-.486.043-.676.129-.19.087-.348.208-.473.364zM229.344 466.925c0-.109.021-.213.062-.312.042-.099.101-.186.176-.262.075-.075.161-.134.258-.176.097-.041.202-.062.316-.062.109 0 .212.021.309.062.097.042.183.101.258.176.075.076.136.162.18.258.044.097.066.202.066.316v8.914c.089.011.179.038.27.082.091.045.169.104.234.176.065.073.118.155.16.246.042.092.062.191.062.301s-.022.214-.066.312c-.044.1-.102.186-.172.258-.07.073-.155.132-.254.176-.099.045-.203.066-.312.066-.239 0-.458-.047-.656-.141s-.391-.25-.578-.469c-.255.193-.546.343-.871.449-.325.107-.679.16-1.059.16-.5 0-.95-.087-1.352-.262-.401-.174-.741-.432-1.02-.773-.278-.341-.493-.764-.645-1.27-.151-.505-.227-1.088-.227-1.75 0-.703.082-1.309.246-1.816s.39-.928.676-1.262c.286-.333.629-.579 1.027-.738.398-.158.829-.238 1.293-.238.308 0 .591.034.852.102.261.068.516.167.766.297v-2.82zm-.454 4.547c-.13-.166-.294-.291-.492-.375-.198-.083-.422-.125-.672-.125-.323 0-.589.061-.797.18-.208.12-.374.287-.496.5-.122.214-.207.469-.254.766s-.07.625-.07.984c0 .479.038.875.113 1.188s.185.562.328.746c.144.186.315.315.516.391.2.076.421.113.66.113.234 0 .452-.039.652-.117s.372-.212.516-.402c.144-.189.254-.438.332-.746.078-.307.117-.697.117-1.172 0-.422-.036-.797-.109-1.125s-.187-.597-.344-.806z"/></g></svg>