<svg id="Calque_1" xmlns="http://www.w3.org/2000/svg" width="524" height="482" viewBox="0 0 524 482"><path fill="none" stroke="#2B3789" stroke-linecap="round" stroke-miterlimit="10" d="M18 44l207 411m0-411L18 455"/><path fill="none" stroke="#000" stroke-miterlimit="10" d="M18 44h207"/><path fill="none" stroke="#000" stroke-linecap="round" stroke-miterlimit="10" d="M18 455h207"/><path d="M30.839 17.114H35.4V44h-4.561V17.114zm12.162 0h4.561V44h-4.561V17.114zm58.718 410.999h4.561V455h-4.561v-26.887zM175.271 8.655h4.562V44h-4.562V8.655zM136.718 421.72h4.561v33.278h-4.561V421.72zm-22.999 14.774h4.561V455h-4.561v-18.506zM81.01 23.116h4.561V44H81.01V23.116zm46.709 404.997h4.561V455h-4.561v-26.887zm65.796-410.999h4.562V44h-4.562V17.114zM157.72 441.557h4.561v13.441h-4.561v-13.441zm8.999-411h4.561v13.441h-4.561V30.557zm305.97 20.15C427.068 37.129 378.46 27.103 330.68 31.988c-22.646 2.316-45.048 8.735-64.226 21.247-13.42 8.756-26.472 22.302-22.033 39.583 4.021 15.667 19.583 27 32.557 35.035 15.173 9.396 32.291 16.635 49.673 20.727 16.59 3.905 34.07 5.225 51.063 5.475 19.441.284 39.209-1.474 57.906-7.006 16.307-4.821 31.941-13.282 42.117-27.238 5.597-7.673 8.443-16.742 9.695-26.085 1.48-11.059 1.307-23.407-5.271-32.92-.908-1.316-3.077-.068-2.156 1.262 7.322 10.595 6.461 24.913 3.963 36.948-2.033 9.802-6.545 18.3-13.422 25.553-13.018 13.728-32.195 20.132-50.301 23.631-19.611 3.792-39.924 4.042-59.793 2.597-16.793-1.221-33.395-3.814-49.301-9.449-24.748-8.768-84.309-37.56-59.241-71.952 6.793-9.321 17.662-15.779 27.774-20.896 10.763-5.442 22.409-9.001 34.19-11.44 24.53-5.083 50.07-4.513 74.849-1.76 28.25 3.141 56.09 9.723 83.299 17.819 1.551.46 2.208-1.953.667-2.412z"/><path d="M324.398 73.495c-12.441 2.439-29.244-1.229-39.688 7.646-11.846 10.062-2.791 30.432 12.204 29.925 7.156-.242 6.333-6.381 8.967-11.228 2.868-5.272 8.487-9.078 14.106-10.695 4.271-1.229 9.241.488 13.574.86 5.527.476 11.753-2.269 10.039-8.88-1.382-5.326-9.725-7.511-14.383-7.674-1.613-.057-1.607 2.444 0 2.5 2.509.088 4.929.771 7.225 1.761 3.487 1.508 8.135 6.916 2.205 9.411-5.597 2.355-12.108-2.035-17.832-.729-6.467 1.474-11.539 4.878-15.589 10.126-1.614 2.091-2.601 4.085-3.253 6.633-.975 3.803-2.133 5.313-6.447 5.461-8.587.291-14.978-9.958-13.739-17.795.971-6.147 6.056-9.511 11.563-11.26 10.238-3.25 21.274-1.605 31.712-3.651 1.582-.31.911-2.72-.664-2.411zm53.125-21.99c-7.178 1.181-7.039 7.849-4.502 13.272 3.301 7.057 10.354 13.576 17.961 15.521 9.312 2.384 15.701-6.229 16.344-14.669.951-12.46-13.604-20.539-24.271-16.322-1.48.585-.836 3.004.664 2.411 10.619-4.196 22.75 4.447 20.852 16.115-1.26 7.732-7.797 11.963-15.01 9.418-5.576-1.968-10.281-6.899-13.328-11.812-2.53-4.077-4.473-10.47 1.957-11.525 1.585-.258.91-2.667-.667-2.409zm-62.868 65.975c6.04 9.788 19.196 20.71 31.559 15.909 8.688-3.375 5.988-15.958.34-20.845-6.951-6.011-36.988-12.521-32.023 4.638.448 1.545 2.86.887 2.411-.665-3.854-13.319 20.023-6.349 25.643-3.547 6.376 3.178 10.354 15.137 2.01 18.38-10.711 4.161-22.761-7.003-27.777-15.131-.849-1.369-3.012-.115-2.163 1.261zm129.464-32.965c-2.256 3.894-2.217 7.356-2.182 11.755.053 6.529-5.656 11.369-12.104 10.472-3.992-.556-6.9-4.786-5.059-8.542.934-1.899 2.729-3.455 4.068-5.077 2.467-2.979 3.701-7.646 4.062-11.417.371-3.856.219-7.688-.682-11.46-.586-2.458-3.334-8.811.076-10.177 5.25-2.104 10.195 2.446 11.33 7.102.971 3.995.34 8.378.299 12.441-.02 1.613 2.48 1.611 2.5 0 .104-10.265.691-22.059-12.72-22.264-3.524-.056-5.44 2.351-5.5 5.659-.095 5.266 2.382 10.33 2.403 15.712.021 4.563-1.295 9.926-4.234 13.479-1.521 1.833-3.631 3.677-4.369 6.021-1.535 4.851 1.73 8.886 6.104 10.653 4.543 1.839 10.006-.729 13.217-3.892 5.219-5.139 1.521-13.292 4.947-19.206.815-1.395-1.345-2.653-2.156-1.259zm30.803 279.88c-45.619-13.578-94.229-23.604-142.008-18.719-22.646 2.313-45.051 8.732-64.229 21.246-13.42 8.756-26.471 22.303-22.033 39.583 4.023 15.667 19.583 27 32.559 35.032 15.174 9.396 32.292 16.638 49.674 20.729 16.59 3.906 34.07 5.223 51.064 5.473 19.441.286 39.205-1.472 57.906-7.004 16.303-4.823 31.939-13.284 42.115-27.24 5.596-7.673 8.441-16.74 9.693-26.085 1.482-11.057 1.309-23.404-5.27-32.919-.91-1.314-3.078-.066-2.158 1.264 7.324 10.595 6.459 24.91 3.961 36.944-2.031 9.805-6.545 18.303-13.422 25.557-13.016 13.728-32.191 20.132-50.297 23.631-19.615 3.792-39.926 4.042-59.796 2.598-16.793-1.221-33.393-3.814-49.299-9.45-24.748-8.767-84.31-37.559-59.244-71.951 6.793-9.321 17.664-15.778 27.776-20.896 10.764-5.443 22.41-9.001 34.189-11.442 24.532-5.082 50.072-4.511 74.852-1.757 28.25 3.141 56.09 9.723 83.297 17.818 1.555.459 2.213-1.953.67-2.412z"/><path d="M375.293 361.604c-12.441 2.438-29.243-1.231-39.688 7.645-11.844 10.064-2.788 30.43 12.203 29.927 7.159-.24 6.334-6.38 8.97-11.228 2.868-5.271 8.484-9.081 14.105-10.695 4.27-1.229 9.24.489 13.574.86 5.525.477 11.752-2.269 10.039-8.879-1.385-5.326-9.727-7.512-14.385-7.675-1.611-.057-1.605 2.443 0 2.5 2.51.088 4.932.77 7.227 1.762 3.486 1.506 8.133 6.916 2.205 9.41-5.6 2.355-12.111-2.033-17.832-.729-6.467 1.472-11.537 4.878-15.587 10.126-1.614 2.092-2.603 4.086-3.253 6.634-.978 3.804-2.137 5.312-6.449 5.459-8.588.289-14.977-9.955-13.738-17.793.969-6.147 6.053-9.514 11.562-11.263 10.236-3.25 21.272-1.604 31.711-3.649 1.582-.312.91-2.719-.664-2.412z"/><path d="M383.463 382.25c-7.178 1.181-7.039 7.849-4.502 13.272 3.301 7.056 10.354 13.575 17.961 15.522 9.311 2.383 15.699-6.229 16.344-14.671.949-12.459-13.605-20.537-24.271-16.321-1.482.585-.84 3.004.664 2.41 10.615-4.196 22.746 4.449 20.85 16.115-1.262 7.731-7.799 11.965-15.01 9.418-5.576-1.969-10.281-6.899-13.328-11.812-2.531-4.077-4.475-10.47 1.957-11.526 1.587-.258.911-2.666-.665-2.407zm-36.13 36.233c6.04 9.789 19.194 20.712 31.558 15.91 8.688-3.374 5.99-15.958.34-20.843-6.951-6.013-36.985-12.523-32.021 4.634.445 1.546 2.857.888 2.41-.664-3.854-13.319 20.023-6.347 25.643-3.546 6.377 3.178 10.357 15.138 2.01 18.38-10.713 4.161-22.762-7.003-27.776-15.133-.851-1.368-3.014-.114-2.164 1.262z"/><path d="M416.822 424.428c-8.571 1.438-12.834 11.966-22.35 7.006-5.279-2.753-7.131-12.149.43-13.11 3.906-.496 7.068.084 10.896-1.261 7.898-2.775 12.416-8.707 17.309-15.032 5.387-6.963 10.654 3.938 7.779 9.341-2.188 4.106-6.906 6.908-10.402 9.795-1.246 1.024.533 2.783 1.77 1.768 4.012-3.312 9.436-6.572 11.465-11.623 1.799-4.474.309-11.393-4.361-13.802-3.82-1.973-6.658.834-8.869 3.858-4.941 6.763-10.006 11.688-18.227 14.233-4.389 1.357-8.625-.891-12.605 2.273-3.762 2.987-2.553 9.301-.122 12.582 2.724 3.677 7.784 5.427 12.214 4.896 6.299-.752 9.447-7.46 15.74-8.517 1.584-.264.909-2.671-.667-2.407z"/><path fill="none" stroke="#008458" stroke-width="2" stroke-linecap="round" stroke-miterlimit="10" d="M315.336 43.275l14.129 14.13m0-14.13l-14.129 14.13M64.936 36.935l14.128 14.129m0-14.129L64.936 51.064M360.334 390.904l14.129 14.131m0-14.131l-14.129 14.131"/><g fill="none" stroke="#2B3789" stroke-miterlimit="10"><path d="M235.953 61.95l1.482 2.012"/><path stroke-dasharray="4.989,4.989" d="M240.396 67.979l264.86 359.477"/><path d="M506.736 429.466l1.483 2.012"/></g><g fill="none" stroke="#2B3789" stroke-miterlimit="10"><path d="M508.219 61.95l-1.483 2.013"/><path stroke-dasharray="4.989,4.989" d="M503.775 67.979L238.916 427.456"/><path d="M237.436 429.466l-1.482 2.012"/></g><path fill="none" stroke="#2B3789" stroke-linecap="round" stroke-miterlimit="10" d="M18 45l206.613 410.234M225 45L18.4 454.5"/><g fill="none" stroke="#2B3789" stroke-miterlimit="10"><path d="M235.953 62.95l1.482 2.012"/><path stroke-dasharray="4.989,4.989" d="M240.396 68.979l264.86 359.477"/><path d="M506.736 430.466l1.483 2.012"/></g><g fill="none" stroke="#2B3789" stroke-miterlimit="10"><path d="M508.219 62.95l-1.483 2.013"/><path stroke-dasharray="4.989,4.989" d="M503.775 68.979L238.916 428.456"/><path d="M237.436 430.466l-1.482 2.012"/></g><path fill="none" stroke="#2B3789" stroke-linecap="round" stroke-miterlimit="10" d="M18 46l206.11 409.234M225 46L18.4 455.5"/><g fill="none" stroke="#2B3789" stroke-miterlimit="10"><path d="M235.953 63.95l1.482 2.012"/><path stroke-dasharray="4.989,4.989" d="M240.396 69.979l264.86 359.477"/><path d="M506.736 431.466l1.483 2.012"/></g><g fill="none" stroke="#2B3789" stroke-miterlimit="10"><path d="M508.219 63.95l-1.483 2.013"/><path stroke-dasharray="4.989,4.989" d="M503.775 69.979L238.916 429.456"/><path d="M237.436 431.466l-1.482 2.012"/></g><path fill="none" stroke="#008458" stroke-width="2" stroke-linecap="round" stroke-miterlimit="10" d="M114.991 448.436l14.129 14.128m0-14.128l-14.129 14.128"/><path fill="none" stroke="#2B3789" stroke-linecap="round" stroke-miterlimit="10" d="M101.719 428.113L121.5 251.5m0 0l19.77 170.22M121.5 251.5l40.78 190.058M121.5 251.5l-3.221 184.994m3.777-180.21l5.663 171.829M121.5 251.5l-56.564 204m56.564-204l76.576 203m146.741-56.586l27.27-149.201m-.001 0l12.139 152.398m-12.139-152.398l60.053 154.108m-60.053-154.108l-39.208 125.773m39.208-125.773l-7.083 183.765m7.083-183.765L301 395.079m71.086-146.366L450 374.486m-77.914-125.773l39.937 178.685m-39.937-178.685L301 416.105m71.086-167.93L322.4 443.557m49.686-194.844L461 421.276"/><circle fill="none" stroke="#008458" stroke-linecap="round" stroke-miterlimit="10" cx="120.635" cy="249.635" r="18.635"/><circle fill="none" stroke="#008458" stroke-linecap="round" stroke-miterlimit="10" cx="372.086" cy="248.713" r="18.635"/><circle fill="none" stroke="#008458" stroke-linecap="round" stroke-miterlimit="10" cx="120.635" cy="248.635" r="18.635"/><circle fill="none" stroke="#008458" stroke-linecap="round" stroke-miterlimit="10" cx="372.086" cy="247.713" r="18.635"/><circle fill="none" stroke="#008458" stroke-linecap="round" stroke-miterlimit="10" cx="120.635" cy="247.635" r="18.635"/><circle fill="none" stroke="#008458" stroke-linecap="round" stroke-miterlimit="10" cx="372.086" cy="246.713" r="18.635"/><circle fill="#2B3789" cx="372.086" cy="248.175" r="3.096"/><circle fill="#2B3789" cx="121.5" cy="250.5" r="3.096"/><path fill="none" stroke="#2B3789" stroke-linecap="round" stroke-miterlimit="10" d="M372.086 248.175L288 390.904"/><g fill="#008458"><path d="M196.431 244.501c.072.128.108.261.108.398 0 .133-.025.252-.075.356-.05.105-.115.197-.195.274-.081.077-.173.137-.278.179-.105.041-.21.062-.315.062-.166 0-.303-.037-.411-.108-.107-.071-.205-.162-.29-.27-.086-.108-.164-.218-.232-.328-.069-.11-.148-.208-.237-.29-.105-.089-.231-.179-.377-.271-.147-.091-.314-.17-.502-.236s-.398-.12-.631-.162c-.232-.041-.487-.062-.764-.062-.343 0-.664.044-.963.133-.299.088-.564.207-.797.356s-.42.322-.564.519c-.144.197-.229.402-.257.619v.049c-.005.028-.008.052-.008.071v.07c0 .232.072.44.216.622.144.184.336.342.577.478.241.136.523.249.847.341.324.091.671.156 1.042.195.647.066 1.23.194 1.747.386.518.19.959.432 1.324.722.365.291.646.627.843 1.009.196.382.294.797.294 1.245 0 .056-.001.129-.004.22-.002.092-.009.143-.021.153v.042c-.072.404-.221.793-.448 1.166-.227.374-.524.704-.893.992-.368.288-.799.518-1.295.688-.495.172-1.042.258-1.639.258-.564 0-1.072-.059-1.523-.174-.451-.117-.85-.275-1.195-.478-.346-.202-.642-.435-.889-.697-.246-.263-.444-.538-.593-.826-.033-.066-.06-.132-.079-.195-.02-.063-.029-.134-.029-.212 0-.11.022-.22.066-.327.044-.108.105-.201.183-.278s.169-.14.274-.187.213-.071.324-.071c.166 0 .302.035.407.104s.199.153.282.253.162.206.237.319c.074.113.162.22.261.319.232.228.553.406.963.536s.847.194 1.312.194c.299 0 .595-.038.888-.115.293-.078.561-.188.801-.328.241-.142.44-.312.598-.515.158-.202.253-.428.287-.677 0-.006.001-.013.004-.021.002-.009.004-.016.004-.021v-.109c0-.216-.062-.415-.187-.598s-.302-.345-.531-.485c-.23-.142-.509-.262-.839-.361-.329-.1-.701-.174-1.116-.225-.659-.071-1.248-.204-1.768-.398-.52-.193-.963-.434-1.328-.722s-.645-.618-.838-.992c-.194-.373-.291-.778-.291-1.216v-.107c0-.045.001-.088.004-.129.002-.042.007-.079.012-.112s.011-.053.017-.058v-.042c.072-.437.228-.844.469-1.22.24-.377.549-.705.925-.984s.811-.499 1.303-.66c.493-.16 1.021-.24 1.585-.24 1.013 0 1.869.191 2.569.572.698.387 1.242.92 1.629 1.607zM204.123 252.146c.078-.111.176-.197.295-.258s.253-.092.402-.092c.105 0 .209.022.312.066.102.045.193.105.273.184.081.077.144.167.191.27.047.103.07.214.07.336 0 .116-.022.229-.066.336-.044.108-.103.206-.174.295s-.149.169-.232.24c-.083.072-.155.133-.216.184-.199.16-.392.283-.577.369-.186.086-.364.152-.536.199s-.336.076-.494.087c-.158.011-.306.017-.444.017-.537 0-1.018-.096-1.444-.286-.426-.191-.784-.47-1.075-.835-.29-.365-.513-.814-.668-1.349s-.232-1.146-.232-1.839c0-.713.08-1.339.241-1.875.161-.537.39-.985.689-1.346.299-.359.659-.631 1.079-.812.42-.184.891-.274 1.411-.274.476 0 .921.083 1.336.249s.776.425 1.083.776c.307.351.549.8.726 1.345s.266 1.191.266 1.938c0 .122-.023.234-.071.337-.047.103-.109.193-.187.273s-.169.143-.274.187c-.105.045-.216.066-.332.066h-4.192c.033.271.09.516.17.73.081.217.186.397.315.544.13.146.291.259.481.337.191.077.417.115.677.115.183 0 .34-.016.473-.049s.245-.075.336-.125c.091-.05.168-.104.232-.162.066-.058.117-.117.156-.178zm-2.416-4.135c-.127.178-.221.365-.282.564s-.108.412-.141.64h3.279c-.039-.243-.093-.472-.162-.685-.069-.213-.166-.397-.291-.553-.124-.154-.283-.275-.477-.36-.194-.086-.429-.129-.706-.129s-.516.046-.718.137c-.201.093-.369.22-.502.386zM212.686 245.762c.36 0 .688.044.984.133.296.089.59.216.884.382.078-.154.187-.278.328-.369.141-.092.294-.137.46-.137.116 0 .226.023.328.07.103.047.194.109.274.187.08.077.142.169.187.274.044.104.066.215.066.332l-.066 5.91c0 .055.017.088.05.1.033.011.055.016.066.016h.008c.122 0 .234.024.336.071.102.047.193.11.273.19.081.08.143.172.187.274s.066.212.066.327c0 .122-.023.235-.071.341-.047.105-.11.195-.19.27-.081.075-.173.133-.278.175-.105.041-.216.062-.332.062h-.017c-.304 0-.571-.064-.801-.191-.23-.127-.439-.296-.627-.506-.277.237-.595.414-.955.531-.36.115-.747.174-1.162.174-.531 0-1.01-.093-1.436-.278s-.787-.459-1.083-.821c-.296-.362-.524-.812-.685-1.35-.161-.536-.241-1.156-.241-1.859 0-.746.087-1.39.262-1.93.174-.539.414-.986.718-1.34.304-.354.668-.616 1.092-.785.424-.168.882-.253 1.375-.253zm1.245 2.258c-.138-.171-.311-.303-.519-.395-.207-.091-.449-.137-.726-.137-.598 0-1.034.209-1.307.627-.274.417-.411 1.069-.411 1.954 0 .51.042.93.125 1.262s.199.597.349.793.331.335.543.415c.213.08.447.12.702.12s.488-.04.702-.12c.213-.08.394-.22.543-.419s.266-.464.349-.793.125-.748.125-1.258c0-.514-.043-.935-.129-1.262-.087-.325-.202-.588-.346-.787zM221.673 246.269c.166-.095.322-.172.469-.232.146-.062.292-.112.436-.154.144-.041.288-.072.432-.091.144-.02.296-.029.457-.029.26 0 .518.032.772.096s.495.15.722.261c.227.111.44.244.639.398.199.155.374.327.523.516.066.071.115.154.145.248.031.095.046.186.046.274 0 .116-.022.228-.066.332s-.103.199-.174.282-.161.148-.266.195-.216.07-.332.07c-.155 0-.269-.021-.34-.062-.072-.041-.143-.097-.212-.166-.069-.068-.153-.15-.253-.244-.1-.095-.257-.199-.473-.316-.254-.104-.498-.157-.73-.157-.277 0-.521.053-.735.157-.213.105-.393.242-.539.411-.147.169-.258.356-.332.561-.075.204-.112.403-.112.598v4.3c0 .116-.023.227-.07.332-.047.105-.111.196-.191.273-.08.078-.171.141-.273.188-.103.047-.215.07-.336.07-.116 0-.227-.023-.332-.07s-.196-.109-.274-.188c-.078-.077-.138-.168-.183-.273s-.066-.216-.066-.332v-6.89c0-.11.022-.219.066-.323.044-.105.105-.197.183-.274s.169-.142.274-.19c.105-.051.216-.075.332-.075.166 0 .321.046.465.137.14.089.25.212.328.367zM233.44 252.088c.078-.122.179-.213.303-.273.125-.062.267-.092.428-.092.1 0 .201.021.303.062.103.041.192.103.27.183s.14.171.187.273c.047.103.07.215.07.337 0 .177-.047.343-.141.498-.094.154-.211.296-.353.423-.141.127-.286.238-.436.332s-.277.169-.382.224c-.443.217-.949.324-1.519.324-.531 0-1.01-.093-1.436-.278s-.787-.459-1.083-.821c-.296-.362-.524-.812-.685-1.35-.161-.536-.241-1.156-.241-1.859 0-.746.087-1.39.262-1.93.174-.539.414-.986.718-1.34.304-.354.668-.616 1.092-.785.423-.168.881-.253 1.374-.253.592 0 1.118.12 1.577.361.459.24.835.571 1.129.991.1.15.149.311.149.482 0 .127-.025.243-.075.348-.05.105-.113.197-.191.274s-.167.138-.27.183c-.102.045-.203.066-.303.066-.315 0-.562-.13-.739-.391-.116-.171-.279-.312-.49-.423s-.473-.166-.789-.166c-.598 0-1.034.209-1.307.627-.274.417-.411 1.069-.411 1.954 0 .51.042.93.125 1.262s.199.597.349.793.331.335.543.415c.213.08.447.12.702.12.266 0 .501-.037.706-.111.204-.075.392-.228.564-.46zM239.695 246.227c.537-.31 1.109-.465 1.718-.465.41 0 .819.079 1.229.236.41.158.779.386 1.108.685.33.299.597.662.801 1.088s.307.908.307 1.444v4.3c0 .127-.025.245-.075.353-.05.108-.113.199-.191.274-.078.074-.169.133-.274.174-.105.042-.21.062-.315.062-.122 0-.234-.023-.336-.07-.102-.047-.193-.109-.273-.188-.081-.077-.144-.168-.191-.273-.047-.105-.07-.216-.07-.332v-4.3c0-.222-.043-.437-.129-.647-.085-.211-.205-.396-.356-.557-.152-.16-.333-.287-.544-.381-.21-.095-.44-.142-.689-.142-.277 0-.521.053-.735.157-.213.105-.393.242-.539.411-.147.169-.258.356-.332.561-.075.204-.112.403-.112.598v4.3c0 .116-.023.227-.07.332-.047.105-.111.196-.191.273-.08.078-.171.141-.273.188-.103.047-.215.07-.336.07-.116 0-.227-.023-.332-.07s-.196-.109-.274-.188c-.078-.077-.138-.168-.183-.273s-.066-.216-.066-.332v-10.326c0-.116.022-.227.066-.332s.105-.197.183-.278c.078-.08.169-.142.274-.187s.216-.066.332-.066c.122 0 .234.021.336.066.102.045.193.106.273.187.081.081.144.172.191.274.047.102.07.215.07.336v3.038zM258.963 252.146c.078-.111.176-.197.295-.258s.253-.092.402-.092c.105 0 .209.022.312.066.102.045.193.105.273.184.081.077.144.167.191.27.047.103.07.214.07.336 0 .116-.022.229-.066.336-.044.108-.103.206-.174.295s-.149.169-.232.24c-.083.072-.155.133-.216.184-.199.16-.392.283-.577.369-.186.086-.364.152-.536.199s-.336.076-.494.087c-.158.011-.306.017-.444.017-.537 0-1.018-.096-1.444-.286-.426-.191-.784-.47-1.075-.835-.29-.365-.513-.814-.668-1.349s-.232-1.146-.232-1.839c0-.713.08-1.339.241-1.875.161-.537.39-.985.689-1.346.299-.359.659-.631 1.079-.812.42-.184.891-.274 1.411-.274.476 0 .921.083 1.336.249s.776.425 1.083.776c.307.351.549.8.726 1.345s.266 1.191.266 1.938c0 .122-.023.234-.071.337-.047.103-.109.193-.187.273s-.169.143-.274.187c-.105.045-.216.066-.332.066h-4.192c.033.271.09.516.17.73.081.217.186.397.315.544.13.146.291.259.481.337.191.077.417.115.677.115.183 0 .34-.016.473-.049s.245-.075.336-.125c.091-.05.168-.104.232-.162.066-.058.117-.117.156-.178zm-2.416-4.135c-.127.178-.221.365-.282.564s-.108.412-.141.64h3.279c-.039-.243-.093-.472-.162-.685-.069-.213-.166-.397-.291-.553-.124-.154-.283-.275-.477-.36-.194-.086-.429-.129-.706-.129s-.516.046-.718.137c-.202.093-.369.22-.502.386zM265.733 246.269c.166-.095.322-.172.47-.232.146-.062.292-.112.436-.154.144-.041.288-.072.432-.091.144-.02.296-.029.456-.029.41 0 .819.079 1.229.236.41.158.779.386 1.108.685s.597.662.802 1.088c.204.426.307.908.307 1.444v4.3c0 .127-.025.245-.074.353-.051.108-.113.199-.191.274-.078.074-.169.133-.273.174-.105.042-.211.062-.316.062-.121 0-.233-.023-.336-.07-.102-.047-.193-.109-.273-.188-.08-.077-.145-.168-.191-.273s-.07-.216-.07-.332v-4.3c0-.222-.043-.437-.129-.647s-.205-.396-.356-.557c-.152-.16-.333-.287-.544-.381-.211-.095-.439-.142-.689-.142-.276 0-.521.053-.734.157-.213.105-.393.242-.539.411s-.258.356-.332.561c-.075.204-.112.403-.112.598v4.3c0 .116-.023.227-.07.332-.048.105-.11.196-.191.273-.08.078-.171.141-.273.188s-.215.07-.337.07c-.115 0-.227-.023-.332-.07-.104-.047-.195-.109-.273-.188-.078-.077-.139-.168-.183-.273s-.066-.216-.066-.332v-6.89c0-.11.022-.219.066-.323.044-.105.104-.197.183-.274s.169-.142.273-.19c.105-.051.217-.075.332-.075.166 0 .321.046.465.137.137.09.248.213.325.368zM277.384 245.762c.343 0 .671.042.983.124.312.084.588.205.826.365.078-.138.182-.253.311-.344.131-.092.284-.137.461-.137.122 0 .234.023.336.07.104.047.193.109.271.187s.14.169.187.274c.047.104.07.213.07.323v7.753c0 .448-.08.879-.24 1.291s-.392.777-.693 1.096c-.301.318-.664.572-1.088.764-.422.19-.896.286-1.423.286-.427 0-.829-.058-1.208-.175-.379-.115-.718-.276-1.017-.48-.299-.205-.552-.456-.759-.752-.209-.296-.354-.627-.437-.992-.017-.071-.024-.141-.024-.207 0-.105.021-.209.066-.312.044-.103.104-.19.182-.266.078-.074.17-.136.274-.183s.213-.07.323-.07c.217 0 .402.063.557.191.154.127.254.287.299.48.017.111.066.228.149.35.083.121.194.234.337.34.141.105.316.189.526.253s.454.096.73.096c.232 0 .454-.037.664-.112.21-.074.394-.186.552-.332s.281-.326.369-.539c.089-.213.133-.455.133-.727v-.432c-.227.149-.49.259-.793.328-.301.069-.609.104-.925.104-.531 0-1.01-.093-1.437-.278-.426-.186-.787-.459-1.082-.821-.297-.362-.525-.812-.686-1.35-.16-.536-.24-1.156-.24-1.859 0-.746.086-1.39.262-1.93.174-.539.413-.986.717-1.34.305-.354.668-.616 1.088-.785.421-.167.881-.252 1.379-.252zm1.237 2.258c-.139-.177-.312-.31-.523-.398s-.448-.133-.714-.133c-.343 0-.626.063-.847.19-.221.128-.396.305-.527.531-.13.228-.221.498-.273.814-.053.314-.079.664-.079 1.045 0 .51.042.93.124 1.262.084.332.201.597.354.793s.334.335.547.415c.214.08.447.12.702.12.249 0 .479-.041.692-.124.214-.083.396-.226.549-.428s.27-.466.353-.792c.083-.327.124-.742.124-1.246 0-.447-.038-.846-.115-1.195-.08-.347-.201-.632-.367-.854zM283.731 243.189c0-.116.021-.226.066-.328.045-.102.105-.193.183-.273s.167-.143.27-.188c.103-.044.215-.066.337-.066.248 0 .455.08.618.241s.244.365.244.614v.017c0 .255-.084.461-.253.618-.169.158-.372.236-.609.236-.244 0-.447-.081-.61-.244-.163-.164-.245-.367-.245-.61v-.017zm0 3.437c0-.11.021-.219.066-.323.045-.105.105-.197.183-.274s.169-.142.274-.19c.104-.051.215-.075.332-.075.121 0 .234.023.34.07.105.048.196.11.274.191.077.08.14.173.187.278.047.104.07.213.07.323v6.89c0 .116-.023.227-.07.332s-.111.196-.191.273c-.08.078-.171.141-.273.188s-.215.07-.336.07c-.117 0-.228-.023-.332-.07-.105-.047-.197-.109-.274-.188-.077-.077-.138-.168-.183-.273s-.066-.216-.066-.332v-6.89zM290.011 246.269c.166-.095.323-.172.47-.232.146-.062.292-.112.436-.154.144-.041.288-.072.432-.091.144-.02.296-.029.456-.029.41 0 .819.079 1.229.236.41.158.779.386 1.108.685s.597.662.802 1.088c.204.426.307.908.307 1.444v4.3c0 .127-.025.245-.074.353-.051.108-.114.199-.191.274-.077.074-.169.133-.273.174-.105.042-.211.062-.316.062-.121 0-.233-.023-.336-.07s-.193-.109-.273-.188c-.08-.077-.145-.168-.191-.273s-.07-.216-.07-.332v-4.3c0-.222-.043-.437-.129-.647s-.204-.396-.356-.557c-.152-.16-.334-.287-.544-.381-.21-.095-.439-.142-.689-.142-.276 0-.521.053-.734.157-.213.105-.393.242-.539.411s-.258.356-.332.561c-.075.204-.112.403-.112.598v4.3c0 .116-.023.227-.07.332s-.111.196-.191.273c-.08.078-.171.141-.273.188s-.215.07-.337.07c-.115 0-.227-.023-.332-.07-.104-.047-.196-.109-.273-.188-.077-.077-.139-.168-.183-.273s-.066-.216-.066-.332v-6.89c0-.11.022-.219.066-.323.044-.105.105-.197.183-.274s.169-.142.273-.19c.105-.051.217-.075.332-.075.166 0 .321.046.465.137.137.09.248.213.325.368zM302.766 252.146c.077-.111.176-.197.295-.258s.253-.092.402-.092c.105 0 .209.022.312.066.103.045.193.105.273.184.08.077.145.167.191.27s.07.214.07.336c0 .116-.022.229-.066.336-.044.108-.103.206-.174.295-.072.089-.15.169-.232.24-.084.072-.155.133-.217.184-.199.16-.391.283-.576.369s-.364.152-.535.199c-.172.047-.337.076-.494.087-.158.011-.306.017-.444.017-.537 0-1.019-.096-1.444-.286-.426-.191-.784-.47-1.075-.835-.29-.365-.513-.814-.668-1.349s-.232-1.146-.232-1.839c0-.713.08-1.339.241-1.875.16-.537.39-.985.688-1.346.299-.359.658-.631 1.079-.812.421-.184.891-.274 1.411-.274.476 0 .921.083 1.337.249.414.166.775.425 1.083.776.307.351.549.8.726 1.345.178.545.266 1.191.266 1.938 0 .122-.023.234-.07.337s-.109.193-.187.273-.169.143-.274.187c-.104.045-.215.066-.332.066h-4.191c.033.271.09.516.17.73.08.217.186.397.315.544s.291.259.481.337c.191.077.417.115.677.115.183 0 .341-.016.474-.049s.244-.075.336-.125c.091-.05.169-.104.232-.162.062-.058.113-.117.152-.178zm-2.415-4.135c-.128.178-.222.365-.283.564-.061.199-.107.412-.141.64h3.279c-.039-.243-.093-.472-.162-.685s-.166-.397-.291-.553c-.124-.154-.283-.275-.477-.36-.194-.086-.43-.129-.706-.129s-.516.046-.718.137c-.201.093-.368.22-.501.386zM313.853 246.842c.122.166.184.338.184.515 0 .122-.021.236-.062.345-.042.107-.103.201-.183.282-.08.08-.172.144-.274.19s-.211.07-.328.07c-.276 0-.503-.107-.68-.323-.062-.077-.151-.146-.271-.203-.119-.059-.249-.104-.39-.138-.142-.033-.284-.057-.428-.07s-.273-.021-.391-.021c-.232.005-.436.033-.609.083-.175.05-.32.116-.436.199-.117.083-.202.176-.258.278s-.083.206-.083.312c0 .11.034.219.104.323s.168.195.295.27c.127.075.276.136.448.183s.362.074.572.079c.398.028.778.101 1.138.22s.674.282.942.49c.269.207.481.456.639.747.158.29.236.618.236.983 0 .398-.082.765-.248 1.1s-.392.623-.677.863c-.285.241-.614.428-.988.561-.373.133-.768.199-1.183.199-.371 0-.736-.053-1.096-.158-.359-.104-.68-.244-.959-.419-.279-.174-.506-.372-.681-.593-.174-.222-.261-.443-.261-.664 0-.111.021-.218.066-.32.044-.103.102-.193.174-.273s.16-.145.266-.191.219-.07.34-.07c.145 0 .281.03.411.092.13.061.237.154.319.281.018.033.058.082.121.146s.153.132.27.204c.116.071.256.134.419.187s.353.079.569.079c.204 0 .394-.028.568-.084.174-.055.325-.127.452-.215.127-.089.227-.192.299-.312s.108-.242.108-.37c0-.199-.118-.37-.354-.514-.235-.145-.568-.23-1-.258-.448-.027-.857-.109-1.229-.245s-.69-.312-.959-.531-.476-.476-.622-.771-.22-.624-.22-.983c0-.338.071-.664.215-.98.145-.314.354-.594.631-.838s.613-.438 1.009-.585c.396-.147.846-.22 1.349-.22.184 0 .392.014.627.041s.478.08.727.158c.249.077.492.186.73.323s.454.319.642.546z"/></g></svg>